<?xml version="1.0" encoding="UTF-8"?>
<svg xmlns="http://www.w3.org/2000/svg" xmlns:xlink="http://www.w3.org/1999/xlink" width="40pt" height="40pt" viewBox="0 0 40 40" version="1.1">
<defs>
<linearGradient id="linear0" gradientUnits="userSpaceOnUse" x1="0.5" y1="0" x2="0.5" y2="1" gradientTransform="matrix(-38.326596,10.275972,-10.260239,-38.267918,44.168418,33.988161)">
<stop offset="0" style="stop-color:rgb(100%,70.588235%,80%);stop-opacity:1;"/>
<stop offset="1" style="stop-color:rgb(100%,100%,100%);stop-opacity:1;"/>
</linearGradient>
<linearGradient id="linear1" gradientUnits="userSpaceOnUse" x1="0.5" y1="0" x2="0.5" y2="1" gradientTransform="matrix(16.242188,0,0,8.710938,11.945312,22.296875)">
<stop offset="0" style="stop-color:rgb(100%,100%,100%);stop-opacity:1;"/>
<stop offset="1" style="stop-color:rgb(100%,60.784314%,76.470588%);stop-opacity:1;"/>
</linearGradient>
<linearGradient id="linear2" gradientUnits="userSpaceOnUse" x1="0.5" y1="0" x2="0.5" y2="1" gradientTransform="matrix(10.828125,0,0,9.058594,9.035156,12.066406)">
<stop offset="0" style="stop-color:rgb(100%,100%,100%);stop-opacity:1;"/>
<stop offset="1" style="stop-color:rgb(100%,60.784314%,76.470588%);stop-opacity:1;"/>
</linearGradient>
<linearGradient id="linear3" gradientUnits="userSpaceOnUse" x1="0.5" y1="0" x2="0.5" y2="1" gradientTransform="matrix(10.824219,0,0,9.058594,20.308594,12.066406)">
<stop offset="0" style="stop-color:rgb(100%,100%,100%);stop-opacity:1;"/>
<stop offset="1" style="stop-color:rgb(100%,60.784314%,76.470588%);stop-opacity:1;"/>
</linearGradient>
</defs>
<g id="surface1">
<path style=" stroke:none;fill-rule:nonzero;fill:url(#linear0);" d="M 11.832031 34.148438 C 19.636719 38.566406 29.542969 35.863281 34.023438 28.097656 C 38.507812 20.332031 35.886719 10.402344 28.160156 5.855469 C 21.648438 2.101562 13.417969 3.269531 8.210938 8.691406 C 7.722656 9.199219 7.738281 10.007812 8.25 10.496094 C 8.757812 10.984375 9.566406 10.964844 10.054688 10.457031 C 14.941406 5.3125 22.917969 4.671875 28.558594 8.976562 C 34.203125 13.277344 35.703125 21.136719 32.035156 27.214844 C 28.371094 33.289062 20.71875 35.628906 14.28125 32.640625 C 7.84375 29.65625 4.691406 22.300781 6.960938 15.578125 C 7.1875 14.910156 6.832031 14.1875 6.164062 13.960938 C 5.496094 13.734375 4.773438 14.089844 4.546875 14.757812 C 2.023438 22.132812 5.078125 30.257812 11.832031 34.148438 Z M 11.832031 34.148438 "/>
<path style=" stroke:none;fill-rule:nonzero;fill:url(#linear1);" d="M 11.945312 23.726562 C 12.398438 27.871094 15.898438 31.007812 20.066406 31.007812 C 24.234375 31.007812 27.734375 27.871094 28.1875 23.726562 C 28.230469 23.34375 28.097656 22.964844 27.832031 22.6875 C 27.5625 22.414062 27.1875 22.269531 26.804688 22.296875 C 24.414062 22.46875 22.148438 22.554688 20.066406 22.554688 C 17.988281 22.554688 15.722656 22.46875 13.332031 22.296875 C 12.949219 22.269531 12.570312 22.414062 12.304688 22.6875 C 12.039062 22.964844 11.90625 23.34375 11.945312 23.726562 Z M 20.066406 24.351562 C 22.007812 24.351562 24.105469 24.277344 26.308594 24.132812 C 25.695312 27.089844 23.085938 29.210938 20.066406 29.210938 C 17.042969 29.210938 14.4375 27.089844 13.824219 24.132812 C 16.027344 24.285156 18.125 24.351562 20.066406 24.351562 Z M 20.066406 24.351562 "/>
<path style=" stroke:none;fill-rule:nonzero;fill:url(#linear2);" d="M 14.457031 12.816406 C 13.484375 12.015625 12.136719 11.835938 10.988281 12.351562 C 9.839844 12.871094 9.082031 13.996094 9.035156 15.253906 C 8.992188 16.515625 9.664062 17.691406 10.777344 18.292969 C 11.867188 18.863281 12.816406 19.675781 13.546875 20.667969 C 13.761719 20.957031 14.097656 21.125 14.457031 21.125 C 14.816406 21.128906 15.15625 20.957031 15.371094 20.667969 C 16.101562 19.675781 17.050781 18.863281 18.140625 18.292969 C 19.425781 17.617188 20.121094 16.191406 19.863281 14.765625 C 19.605469 13.339844 18.453125 12.246094 17.015625 12.066406 C 16.09375 11.949219 15.167969 12.21875 14.457031 12.816406 Z M 18.097656 15.183594 C 18.171875 15.808594 17.855469 16.410156 17.300781 16.703125 C 16.5625 17.082031 15.878906 17.558594 15.273438 18.125 C 14.984375 18.382812 14.714844 18.652344 14.457031 18.941406 C 14.203125 18.652344 13.929688 18.382812 13.644531 18.125 C 13.035156 17.558594 12.355469 17.082031 11.617188 16.703125 C 11.054688 16.40625 10.734375 15.789062 10.820312 15.15625 C 10.902344 14.527344 11.371094 14.015625 11.992188 13.875 C 12.617188 13.734375 13.257812 13.996094 13.605469 14.53125 C 13.792969 14.824219 14.113281 15.003906 14.460938 15.003906 C 14.808594 15.003906 15.132812 14.824219 15.320312 14.53125 C 15.636719 14.039062 16.210938 13.769531 16.796875 13.847656 C 17.484375 13.941406 18.023438 14.492188 18.101562 15.183594 Z M 18.097656 15.183594 "/>
<path style=" stroke:none;fill-rule:nonzero;fill:url(#linear3);" d="M 25.726562 12.816406 C 24.753906 12.015625 23.410156 11.835938 22.257812 12.351562 C 21.109375 12.871094 20.351562 13.996094 20.308594 15.253906 C 20.261719 16.515625 20.9375 17.691406 22.046875 18.292969 C 23.140625 18.863281 24.085938 19.675781 24.816406 20.667969 C 25.03125 20.957031 25.367188 21.125 25.726562 21.125 C 26.085938 21.128906 26.425781 20.957031 26.640625 20.667969 C 27.371094 19.675781 28.320312 18.863281 29.414062 18.292969 C 30.695312 17.617188 31.394531 16.191406 31.132812 14.765625 C 30.875 13.339844 29.722656 12.246094 28.285156 12.066406 C 27.363281 11.949219 26.4375 12.21875 25.726562 12.816406 Z M 29.371094 15.183594 C 29.441406 15.808594 29.125 16.410156 28.570312 16.703125 C 27.832031 17.082031 27.152344 17.558594 26.542969 18.125 C 26.257812 18.382812 25.984375 18.652344 25.730469 18.941406 C 25.472656 18.652344 25.203125 18.382812 24.914062 18.125 C 24.308594 17.558594 23.625 17.082031 22.886719 16.703125 C 22.324219 16.40625 22.007812 15.789062 22.089844 15.15625 C 22.175781 14.527344 22.644531 14.015625 23.265625 13.875 C 23.886719 13.734375 24.53125 13.996094 24.875 14.53125 C 25.0625 14.824219 25.386719 15.003906 25.734375 15.003906 C 26.078125 15.003906 26.402344 14.824219 26.589844 14.53125 C 26.90625 14.039062 27.484375 13.769531 28.066406 13.847656 C 28.757812 13.941406 29.292969 14.492188 29.371094 15.183594 Z M 29.371094 15.183594 "/>
</g>
</svg>
