<svg xmlns="http://www.w3.org/2000/svg" width="4" height="6.772" viewBox="0 0 4 6.772">
  <defs>
    <style>
      .cls-1 {
        fill: #fbbd34;
      }
    </style>
  </defs>
  <g id="download" transform="translate(-100.698 6.772) rotate(-90)">
    <g id="Group_821" data-name="Group 821" transform="translate(0 100.698)">
      <path id="Path_456" data-name="Path 456" class="cls-1" d="M6.664,101.032l-.222-.223a.371.371,0,0,0-.524,0l-2.53,2.531L.854,100.806a.371.371,0,0,0-.524,0l-.222.222a.371.371,0,0,0,0,.524l3.016,3.027a.379.379,0,0,0,.263.119h0a.379.379,0,0,0,.262-.119l3.014-3.019a.374.374,0,0,0,.108-.265A.37.37,0,0,0,6.664,101.032Z" transform="translate(0 -100.698)"/>
    </g>
  </g>
</svg>
