<?xml version="1.0" encoding="utf-8"?>
<!-- Generator: Adobe Illustrator 19.1.0, SVG Export Plug-In . SVG Version: 6.00 Build 0)  -->
<svg version="1.1" id="Layer_1" xmlns="http://www.w3.org/2000/svg" xmlns:xlink="http://www.w3.org/1999/xlink" x="0px" y="0px"
	 viewBox="-372 283.5 46.5 46.5" style="enable-background:new -372 283.5 46.5 46.5;" xml:space="preserve">
<style type="text/css">
	.st0{fill:url(#basketball-2_1_);}
</style>
<g transform="matrix(1, 0, 0, 1, 0, 0)">
	
		<linearGradient id="basketball-2_1_" gradientUnits="userSpaceOnUse" x1="-730.4378" y1="603.8294" x2="-730.4378" y2="602.1973" gradientTransform="matrix(28.4791 0 0 -28.4782 20453.4707 17479.4941)">
		<stop  offset="0" style="stop-color:#FFFFFF"/>
		<stop  offset="1" style="stop-color:#FFB4CC"/>
	</linearGradient>
	<path id="basketball-2" class="st0" d="M-332.3,290.3c-9.1-9.1-23.8-9.1-32.9,0c-9.1,9.1-9.1,23.8,0,32.9c7.6,7.6,19.3,9,28.5,3.5
		c0.8-0.6,1.1-1.7,0.5-2.5c-0.5-0.8-1.6-1-2.4-0.6c-2.5,1.5-5.4,2.5-8.3,2.7v-17.7h6.5c0.2,2.5,0.8,4.9,1.8,7.2
		c0.4,0.9,1.5,1.4,2.4,1c0.9-0.4,1.4-1.5,1-2.4c-0.8-1.9-1.3-3.8-1.5-5.8h7.5c-0.3,3.2-1.4,6.4-3.2,9.1c-0.6,0.8-0.3,2,0.5,2.5
		s2,0.3,2.5-0.5l0,0C-323.3,310.5-324.5,298.2-332.3,290.3z M-333,295.1c2.1,2.9,3.4,6.3,3.8,9.9h-7.5
		C-336.4,301.4-335.1,298-333,295.1L-333,295.1z M-350.6,287.2v17.7h-6.5c-0.2-2.5-0.8-4.9-1.7-7.1c-0.4-0.9-1.5-1.4-2.4-1
		s-1.4,1.5-1,2.4c0.8,1.8,1.2,3.8,1.4,5.7h-7.5C-367.4,295.6-360,288.1-350.6,287.2z M-364.5,318.4c-2.1-2.9-3.4-6.3-3.8-9.9h7.5
		C-361.1,312.1-362.4,315.6-364.5,318.4z M-350.6,326.3c-4.3-0.4-8.3-2.2-11.5-5.1c2.9-3.6,4.6-8,4.9-12.6h6.5L-350.6,326.3z
		 M-346.9,287.2c4.3,0.4,8.3,2.2,11.5,5.1c-2.9,3.6-4.6,8-4.9,12.6h-6.5L-346.9,287.2z"/>
</g>
</svg>
