<svg height="10" viewBox="0 0 10 10" width="10" xmlns="http://www.w3.org/2000/svg"><g fill="#0a1042"><circle cx="7.539" cy="4.102" r=".391"/><path d="m8.438.781h-.508v-.39a.391.391 0 0 0 -.781 0v.39h-1.778v-.39a.391.391 0 0 0 -.781 0v.39h-1.758v-.39a.391.391 0 0 0 -.781 0v.39h-.488a1.564 1.564 0 0 0 -1.563 1.563v6.094a1.564 1.564 0 0 0 1.563 1.562h2.988a.391.391 0 0 0 0-.781h-2.988a.782.782 0 0 1 -.781-.781v-6.094a.782.782 0 0 1 .781-.781h.488v.391a.391.391 0 0 0 .781 0v-.391h1.758v.391a.391.391 0 0 0 .781 0v-.391h1.777v.391a.391.391 0 0 0 .781 0v-.391h.508a.782.782 0 0 1 .781.781v2.226a.391.391 0 0 0 .781 0v-2.226a1.564 1.564 0 0 0 -1.561-1.563z"/><path d="m272.363 270a2.363 2.363 0 1 0 2.363 2.363 2.366 2.366 0 0 0 -2.363-2.363zm0 3.945a1.582 1.582 0 1 1 1.582-1.582 1.584 1.584 0 0 1 -1.582 1.582z" transform="translate(-264.727 -264.727)"/><path d="m371.957 330.8h-.176v-.41a.391.391 0 0 0 -.781 0v.8a.391.391 0 0 0 .391.391h.566a.391.391 0 0 0 0-.781z" transform="translate(-363.754 -323.555)"/><circle cx="5.84" cy="4.102" r=".391"/><circle cx="4.141" cy="5.801" r=".391"/><circle cx="2.442" cy="4.102" r=".391"/><circle cx="2.442" cy="5.801" r=".391"/><circle cx="2.442" cy="7.5" r=".391"/><circle cx="4.141" cy="7.5" r=".391"/><circle cx="4.141" cy="4.102" r=".391"/></g></svg>