<svg id="calendar" xmlns="http://www.w3.org/2000/svg" xmlns:xlink="http://www.w3.org/1999/xlink" width="25" height="25" viewBox="0 0 25 25">
  <defs>
    <style>
      .cls-1 {
        fill: url(#linear-gradient);
      }
    </style>
    <linearGradient id="linear-gradient" x1="0.5" x2="0.5" y2="1" gradientUnits="objectBoundingBox">
      <stop offset="0" stop-color="#a380e4"/>
      <stop offset="1" stop-color="#925afb"/>
    </linearGradient>
  </defs>
  <g id="Group_1123" data-name="Group 1123">
    <path id="Path_549" data-name="Path 549" class="cls-1" d="M24.023,17.188A.977.977,0,0,0,25,16.211V5.859a3.911,3.911,0,0,0-3.906-3.906h-1.27V.977a.977.977,0,0,0-1.953,0v.977H13.428V.977a.977.977,0,1,0-1.953,0v.977H7.08V.977a.977.977,0,1,0-1.953,0v.977H3.906A3.911,3.911,0,0,0,0,5.859V21.094A3.911,3.911,0,0,0,3.906,25H21.094A3.911,3.911,0,0,0,25,21.094a.977.977,0,0,0-1.953,0,1.955,1.955,0,0,1-1.953,1.953H17.383V17.188Zm-.977-1.953H17.383V9.375h5.664ZM7.617,23.047H3.906a1.955,1.955,0,0,1-1.953-1.953V17.188H7.617Zm0-7.813H1.953V9.375H7.617Zm7.812,7.813H9.57V17.188H15.43Zm0-7.813H9.57V9.375H15.43ZM1.953,7.422V5.859A1.955,1.955,0,0,1,3.906,3.906H5.127v.977a.977.977,0,1,0,1.953,0V3.906h4.395v.977a.977.977,0,1,0,1.953,0V3.906h4.443v.977a.977.977,0,0,0,1.953,0V3.906h1.27a1.955,1.955,0,0,1,1.953,1.953V7.422Z"/>
  </g>
</svg>
