<svg xmlns="http://www.w3.org/2000/svg" width="25" height="25" viewBox="0 0 25 25">
  <defs>
    <style>
      .cls-1 {
        fill: #fafafa;
      }
    </style>
  </defs>
  <g id="Group_1036" data-name="Group 1036" transform="translate(-88 -278.003)">
    <path id="upload" class="cls-1" d="M21.094,22.14H3.906A3.911,3.911,0,0,1,0,18.233v-3.32a.977.977,0,1,1,1.953,0v3.32a1.955,1.955,0,0,0,1.953,1.953H21.094a1.955,1.955,0,0,0,1.953-1.953v-3.32a.977.977,0,1,1,1.953,0v3.32A3.911,3.911,0,0,1,21.094,22.14Z" transform="translate(88 280.864)"/>
    <path id="upload-2" data-name="upload" class="cls-1" d="M12.432,1.476V13a1.955,1.955,0,0,1-1.953,1.953H6.391l4.374,4.4a.973.973,0,0,0,1.38,0l4.374-4.4h-.962a.977.977,0,0,1,0-1.953h1.074a1.909,1.909,0,0,1,1.348,3.256L13.53,20.73a2.926,2.926,0,0,1-4.15,0L4.932,16.256A1.909,1.909,0,0,1,6.28,13h4.2V1.476a.977.977,0,1,1,1.953,0Zm0,0" transform="translate(89.094 277.504)"/>
  </g>
</svg>
