<svg xmlns="http://www.w3.org/2000/svg" width="18.467" height="10" viewBox="0 0 18.467 10">
  <defs>
    <style>
      .cls-1 {
        fill: #40476e;
      }
    </style>
  </defs>
  <g id="eye" transform="translate(0 -104.721)">
    <g id="Group_822" data-name="Group 822" transform="translate(0 104.721)">
      <path id="Path_457" data-name="Path 457" class="cls-1" d="M18.15,109.32a13.791,13.791,0,0,0-2.466-2.3,10.973,10.973,0,0,0-6.45-2.3,10.973,10.973,0,0,0-6.45,2.3,13.793,13.793,0,0,0-2.466,2.3l-.317.4.317.4a13.794,13.794,0,0,0,2.466,2.3,10.973,10.973,0,0,0,6.45,2.3,10.973,10.973,0,0,0,6.45-2.3,13.791,13.791,0,0,0,2.466-2.3l.317-.4Zm-8.916,3.9a3.5,3.5,0,0,1-3.392-4.379l-.8-.135a4.308,4.308,0,0,0,1.263,4.172A11.351,11.351,0,0,1,3.579,111.4a13.59,13.59,0,0,1-1.893-1.677,13.593,13.593,0,0,1,1.893-1.677,11.353,11.353,0,0,1,2.726-1.484l.536.6a3.5,3.5,0,1,1,2.392,6.059Zm5.655-1.826a11.353,11.353,0,0,1-2.726,1.484,4.3,4.3,0,0,0,0-6.322,11.354,11.354,0,0,1,2.726,1.484,13.592,13.592,0,0,1,1.893,1.677A13.585,13.585,0,0,1,14.889,111.4Z" transform="translate(0 -104.721)"/>
      <path id="Path_458" data-name="Path 458" class="cls-1" d="M170.855,172.405a2.334,2.334,0,1,0,.615-1l1.149,1.3Z" transform="translate(-163.851 -168.086)"/>
    </g>
  </g>
</svg>
