<?xml version="1.0" encoding="utf-8"?>
<!-- Generator: Adobe Illustrator 19.1.0, SVG Export Plug-In . SVG Version: 6.00 Build 0)  -->
<svg version="1.1" id="Layer_1" xmlns="http://www.w3.org/2000/svg" xmlns:xlink="http://www.w3.org/1999/xlink" x="0px" y="0px"
	 viewBox="716.5 -80.5 205 205" style="enable-background:new 716.5 -80.5 205 205;" xml:space="preserve">
<style type="text/css">
	.st0{fill:#FFFFFF;}
	.st1{fill:url(#SVGID_1_);}
</style>
<g>
	<path class="st0" d="M893.1-31.3h-27.8c-2,0-3.6,1.6-3.6,3.6v17.6v3.2V3.4l6.8-6.7h24.6c2,0,3.6-1.6,3.6-3.6v-20.8
		C896.6-29.7,895-31.3,893.1-31.3z"/>
	
		<linearGradient id="SVGID_1_" gradientUnits="userSpaceOnUse" x1="870.1196" y1="70.2876" x2="888.0377" y2="52.5616" gradientTransform="matrix(1 0 0 -1 0 43.2)">
		<stop  offset="0" style="stop-color:#DC5C85"/>
		<stop  offset="1" style="stop-color:#AC41CA"/>
	</linearGradient>
	<path class="st1" d="M890.1-24.2l-7,5.4v-3c0-1.4-1.1-2.5-2.5-2.5h-9.3c-1.4,0-2.5,1.1-2.5,2.5v9.3c0,1.4,1.1,2.5,2.5,2.5h9.3
		c1.4,0,2.5-1.1,2.5-2.5v-3.1l7,5.4V-24.2z"/>
</g>
<g>
	<path class="st0" d="M736.1,9.7c-0.8,0.6-1.1,1.6-1.1,3v2.5h7.4v7H735v29.2h-10.8V22.2h-5.7v-7h5.7v-3.8c0-3.9,1.1-6.6,3.4-8.1
		c2.3-1.5,5.5-2.3,9.7-2.3c1.9,0,3.9,0.1,6.1,0.5V9c-2.2-0.1-3.5-0.2-4-0.2C737.9,8.9,736.8,9.1,736.1,9.7z"/>
	<path class="st0" d="M766.5,46.2c-1,1.9-2.5,3.3-4.7,4.4c-2.2,1.1-4.6,1.6-7.2,1.6c-2.1,0-4.1-0.4-6-1.3c-1.8-0.9-3.3-2.1-4.4-3.7
		c-1.1-1.6-1.7-3.5-1.7-5.7c0-3.7,1.2-6.4,3.6-8.2c2.4-1.8,6.2-3,11.2-3.6c3.5-0.4,5.9-1,7.2-1.5c1.3-0.6,1.9-1.4,1.9-2.4
		c0-1.3-0.5-2.3-1.4-3c-1-0.7-2.4-1.1-4.2-1.1c-1.6,0-3,0.4-4.2,1.3c-1.2,0.9-2.1,2.1-2.6,3.8l-10.1-1.2c0.8-3.5,2.7-6.3,5.8-8.2
		c3-2,6.8-3,11.3-3c5.4,0,9.5,1.1,12.2,3.2c2.7,2.1,4.1,5.1,4.1,8.9v18c0,2,0,3.6,0.2,4.6c0.1,1,0.4,1.8,0.8,2.5h-10.8
		C766.8,50.6,766.5,48.9,766.5,46.2z M764.2,34.8c-1,0.2-2.6,0.5-4.8,0.9c-1.8,0.3-3.2,0.8-4.3,1.7c-1.1,0.9-1.6,2-1.6,3.4
		c0,1.3,0.4,2.4,1.3,3.2c0.9,0.8,2.1,1.2,3.5,1.2c1.2,0,2.5-0.3,3.7-0.8c1.2-0.5,2.3-1.4,3.1-2.6c0.8-1.2,1.3-2.6,1.3-4.4v-3.4
		C766,34.3,765.2,34.6,764.2,34.8z"/>
	<path class="st0" d="M834.9,17.6c2.3,2.3,3.4,5.6,3.4,9.9v23.8h-10.9V30.3c0-2.6-0.5-4.5-1.4-5.6c-1-1.1-2.4-1.7-4.2-1.7
		c-1.8,0-3.3,0.8-4.6,2.3c-1.2,1.5-1.8,3.7-1.8,6.6v19.6h-10.9V30.3c0-2.6-0.5-4.5-1.4-5.6c-1-1.1-2.4-1.7-4.2-1.7
		c-1.8,0-3.3,0.8-4.6,2.3c-1.3,1.5-1.9,3.7-1.9,6.6v19.6h-10.9V15.2h10.4V20h0.3c2.7-3.8,6.4-5.7,11-5.7c2.4,0,4.5,0.5,6.4,1.5
		c1.8,1,3.2,2.5,4.2,4.6c1.6-1.9,3.4-3.4,5.3-4.5c1.9-1.1,4.3-1.6,7-1.6C829.7,14.3,832.6,15.4,834.9,17.6z"/>
	<path class="st0" d="M875.6,46c-1.4,1.8-3.4,3.3-6,4.4s-5.7,1.8-9.4,1.8c-3.8,0-7.1-0.8-9.9-2.3c-2.8-1.5-4.9-3.7-6.5-6.6
		c-1.5-2.9-2.3-6.2-2.3-10.1c0-5.9,1.6-10.6,4.9-14c3.3-3.4,7.9-5.1,13.7-5.1c5.7,0,10.2,1.6,13.6,4.9s5,8,5,14.1c0,1,0,1.7-0.1,2.1
		h-26.2c0,2.9,0.8,5.1,2.1,6.9c1.4,1.7,3.2,2.6,5.5,2.6c2.1,0,3.8-0.5,4.9-1.5c1.1-1,1.9-2.2,2.2-3.6l11.1,0.8
		C877.9,42.4,877,44.2,875.6,46z M854.9,23.5c-1.3,1.4-2,3.2-2.2,5.4h15c-0.1-2.2-0.9-4-2.2-5.4c-1.3-1.4-3.1-2.1-5.3-2.1
		C858,21.4,856.2,22.1,854.9,23.5z"/>
	<path class="st0" d="M910.7,16.6c2.9,1.6,5,3.7,6.5,6.6c1.5,2.9,2.3,6.2,2.3,10.1c0,5.9-1.7,10.5-5,13.9c-3.4,3.4-8,5.1-13.9,5.1
		c-6,0-10.6-1.7-14-5c-3.3-3.4-5-8-5-13.9c0-5.9,1.7-10.5,5-13.9c3.3-3.4,8-5.1,14-5.1C904.5,14.3,907.9,15,910.7,16.6z M906.3,41.5
		c1.4-1.8,2.1-4.6,2.1-8.3c0-3.6-0.7-6.4-2.1-8.2c-1.4-1.8-3.3-2.8-5.8-2.8c-2.5,0-4.5,0.9-5.9,2.8c-1.4,1.8-2.1,4.6-2.1,8.2
		c0,3.7,0.7,6.5,2.1,8.3c1.4,1.8,3.4,2.7,5.9,2.7C903,44.2,904.9,43.4,906.3,41.5z"/>
</g>
</svg>
