<svg id="list" xmlns="http://www.w3.org/2000/svg" width="20" height="20" viewBox="0 0 20 20">
  <defs>
    <style>
      .cls-1 {
        fill: #fff;
      }
    </style>
  </defs>
  <g id="Group_1403" data-name="Group 1403" transform="translate(0 0)">
    <g id="Group_1402" data-name="Group 1402">
      <path id="Path_1277" data-name="Path 1277" class="cls-1" d="M192.833,108.334H199.5a.833.833,0,0,0,0-1.667h-6.667a.833.833,0,0,0,0,1.667Z" transform="translate(-184.5 -102.5)"/>
      <path id="Path_1278" data-name="Path 1278" class="cls-1" d="M192.833,236.334H199.5a.833.833,0,0,0,0-1.667h-6.667a.833.833,0,0,0,0,1.667Z" transform="translate(-184.5 -225.5)"/>
      <path id="Path_1279" data-name="Path 1279" class="cls-1" d="M192.833,364.334H199.5a.833.833,0,0,0,0-1.667h-6.667a.833.833,0,0,0,0,1.667Z" transform="translate(-184.5 -348.5)"/>
      <path id="Path_1280" data-name="Path 1280" class="cls-1" d="M19.167,0H.833A.833.833,0,0,0,0,.833V19.167A.833.833,0,0,0,.833,20H19.167A.833.833,0,0,0,20,19.167V.833A.833.833,0,0,0,19.167,0Zm-.833,18.333H1.667V1.667H18.333V18.333Z" transform="translate(0 0)"/>
      <path id="Path_1281" data-name="Path 1281" class="cls-1" d="M107.145,346.843l.772-.406.772.406-.147-.86.625-.609-.863-.126-.387-.783-.387.783-.863.126.625.609Z" transform="translate(-102.5 -331.009)"/>
      <path id="Path_1282" data-name="Path 1282" class="cls-1" d="M107.145,218.843l.772-.406.772.406-.147-.86.625-.609-.863-.126-.387-.783-.387.783-.863.126.625.609Z" transform="translate(-102.5 -208.009)"/>
      <path id="Path_1283" data-name="Path 1283" class="cls-1" d="M107.145,87.711l.772-.406.772.406-.147-.86.625-.609-.863-.126-.387-.783-.387.783-.863.126.625.609Z" transform="translate(-102.5 -82)"/>
    </g>
  </g>
</svg>
