<svg xmlns="http://www.w3.org/2000/svg" xmlns:xlink="http://www.w3.org/1999/xlink" width="33.685" height="33" viewBox="0 0 33.685 33">
  <defs>
    <style>
      .cls-1 {
        fill: url(#linear-gradient);
      }

      .cls-2 {
        filter: url(#star);
      }
    </style>
    <linearGradient id="linear-gradient" x1="0.789" y1="0.105" x2="0.201" y2="1" gradientUnits="objectBoundingBox">
      <stop offset="0" stop-color="#fff"/>
      <stop offset="1" stop-color="gray"/>
    </linearGradient>
    <filter id="star" x="0" y="0" width="33.685" height="33" filterUnits="userSpaceOnUse">
      <feOffset dy="3" input="SourceAlpha"/>
      <feGaussianBlur stdDeviation="3" result="blur"/>
      <feFlood flood-opacity="0.161"/>
      <feComposite operator="in" in2="blur"/>
      <feComposite in="SourceGraphic"/>
    </filter>
  </defs>
  <g class="cls-2" transform="matrix(1, 0, 0, 1, 0, 0)">
    <path id="star-2" data-name="star" class="cls-1" d="M8.6,1.518,10.369,5.1a.844.844,0,0,0,.636.462l3.956.575a.845.845,0,0,1,.468,1.441l-2.862,2.79a.845.845,0,0,0-.243.748L13,15.057a.845.845,0,0,1-1.226.891l-3.538-1.86a.846.846,0,0,0-.786,0l-3.538,1.86a.845.845,0,0,1-1.226-.891l.676-3.94a.845.845,0,0,0-.243-.748L.257,7.58A.844.844,0,0,1,.725,6.139l3.956-.575A.844.844,0,0,0,5.317,5.1L7.086,1.518A.844.844,0,0,1,8.6,1.518Z" transform="translate(9 4.95)"/>
  </g>
</svg>
