<svg xmlns="http://www.w3.org/2000/svg" width="21.361" height="20" viewBox="0 0 21.361 20">
  <defs>
    <style>
      .cls-1 {
        fill: #fff;
      }
    </style>
  </defs>
  <g id="gift_1_" data-name="gift (1)" transform="translate(0 -16.314)">
    <g id="Group_1477" data-name="Group 1477" transform="translate(0 16.314)">
      <path id="Path_1740" data-name="Path 1740" class="cls-1" d="M20.026,21.628H15.8a5.187,5.187,0,0,0,.745-.6,2.793,2.793,0,0,0,0-3.928,2.822,2.822,0,0,0-3.916,0c-.578.581-2.115,2.945-1.9,4.525h-.1c.211-1.579-1.324-3.944-1.9-4.525a2.822,2.822,0,0,0-3.916,0,2.794,2.794,0,0,0,0,3.928,5.283,5.283,0,0,0,.746.6H1.335A1.337,1.337,0,0,0,0,22.963V26.3a.668.668,0,0,0,.668.668h.668v8.01A1.337,1.337,0,0,0,2.67,36.314H18.691a1.337,1.337,0,0,0,1.335-1.335v-8.01h.668a.668.668,0,0,0,.668-.668V22.963A1.337,1.337,0,0,0,20.026,21.628ZM5.761,18.045a1.423,1.423,0,0,1,2.023,0c.9.905,1.794,3.218,1.483,3.539a.44.44,0,0,1-.247.044A6.565,6.565,0,0,1,5.761,20.09,1.456,1.456,0,0,1,5.761,18.045Zm4.252,16.934H2.67v-8.01h7.343Zm0-9.346H1.335v-2.67h8.678Zm3.565-7.589A1.438,1.438,0,0,1,15.6,20.09a6.565,6.565,0,0,1-3.259,1.538.439.439,0,0,1-.248-.044C11.783,21.262,12.678,18.95,13.578,18.045Zm5.113,16.934H11.348v-8.01h7.343Zm1.335-9.346H11.348v-2.67h8.678Z" transform="translate(0 -16.314)"/>
    </g>
  </g>
</svg>
