<svg xmlns="http://www.w3.org/2000/svg" xmlns:xlink="http://www.w3.org/1999/xlink" width="38.211" height="37.154" viewBox="0 0 38.211 37.154">
  <defs>
    <style>
      .cls-1 {
        fill: #fafafa;
      }

      .cls-2 {
        filter: url(#Path_468-2);
      }

      .cls-3 {
        filter: url(#Path_468);
      }
    </style>
    <filter id="Path_468" x="10.507" y="0" width="27.704" height="37.154" filterUnits="userSpaceOnUse">
      <feOffset dy="3" input="SourceAlpha"/>
      <feGaussianBlur stdDeviation="3" result="blur"/>
      <feFlood flood-opacity="0.161"/>
      <feComposite operator="in" in2="blur"/>
      <feComposite in="SourceGraphic"/>
    </filter>
    <filter id="Path_468-2" x="0" y="0" width="27.704" height="37.154" filterUnits="userSpaceOnUse">
      <feOffset dy="3" input="SourceAlpha"/>
      <feGaussianBlur stdDeviation="3" result="blur-2"/>
      <feFlood flood-opacity="0.161"/>
      <feComposite operator="in" in2="blur-2"/>
      <feComposite in="SourceGraphic"/>
    </filter>
  </defs>
  <g id="Group_1038" data-name="Group 1038" transform="translate(-94 -356)">
    <g id="Group_833" data-name="Group 833" transform="translate(113.507 362)">
      <g id="Group_832" data-name="Group 832" transform="translate(0 0)">
        <g class="cls-3" transform="matrix(1, 0, 0, 1, -19.51, -6)">
          <path id="Path_468-3" data-name="Path 468" class="cls-1" d="M1.96,42.171a.856.856,0,0,1,0-1.21l7.494-7.513A.855.855,0,0,0,8.244,32.24L.751,39.752a2.568,2.568,0,0,0,0,3.627l7.494,7.513a.855.855,0,0,0,1.211-1.208Z" transform="translate(19.51 -25.99)"/>
        </g>
      </g>
    </g>
    <g id="Group_1037" data-name="Group 1037" transform="translate(112.704 381.154) rotate(180)">
      <g id="Group_832-2" data-name="Group 832" transform="translate(0 0)">
        <g class="cls-2" transform="matrix(-1, 0, 0, -1, 18.7, 25.15)">
          <path id="Path_468-4" data-name="Path 468" class="cls-1" d="M1.959,10.182a.856.856,0,0,1,0-1.21L9.455,1.459A.855.855,0,0,0,8.244.251L.75,7.763a2.568,2.568,0,0,0,0,3.627L8.244,18.9A.855.855,0,0,0,9.455,17.7Z" transform="translate(18.7 25.15) rotate(180)"/>
        </g>
      </g>
    </g>
  </g>
</svg>
