<svg id="heart" xmlns="http://www.w3.org/2000/svg" width="25" height="21.126" viewBox="0 0 25 21.126">
  <g id="Group_840" data-name="Group 840" transform="translate(-3 -2)">
    <path id="Path_474" data-name="Path 474" d="M23.031,41.6a6.627,6.627,0,0,0-4.769-1.929,6.26,6.26,0,0,0-5.731,3.056l-.031.052-.031-.052a6.26,6.26,0,0,0-5.731-3.056A6.627,6.627,0,0,0,1.969,41.6,7.16,7.16,0,0,0,0,46.765c0,4.4,3.915,7.324,7.369,9.9a24.828,24.828,0,0,1,4.37,3.767.977.977,0,0,0,1.522,0c.526-.654,5.145-4.308,6.19-5.147.42-.338-1.033.254-1.371-.167s4.475-4.668,4.054-4.33C21.4,51.382,13,57.85,12.5,58.359A34.492,34.492,0,0,0,8.537,55.1c-3.237-2.414,1.522,5.392,1.522,1.967,0-3.027-.346,1.291,2.472,1.291,1.832,0,5.6-5.184,6.436-3.824.664,1.079-7.441-8.659-7.441-8.652.039.509,6.043,7.866,6.553,7.866s2.319-1.157,2.359-1.666a22.421,22.421,0,0,0,2.807-3.024c.836-1.359-1.37-2.779.462-2.779,2.817,0-.66-2.541-.66.485,0,2.834-2.307,5.031-4.8,6.983a.977.977,0,1,0,1.2,1.538,20.7,20.7,0,0,0,3.8-3.657A7.931,7.931,0,0,0,25,46.765,7.16,7.16,0,0,0,23.031,41.6Z" transform="translate(3 -37.672)" fill="#fc476e"/>
  </g>
</svg>
