<svg xmlns="http://www.w3.org/2000/svg" xmlns:xlink="http://www.w3.org/1999/xlink" width="25" height="25" viewBox="0 0 25 25">
  <defs>
    <linearGradient id="linear-gradient" x1="0.5" x2="0.5" y2="1" gradientUnits="objectBoundingBox">
      <stop offset="0" stop-color="#a380e4"/>
      <stop offset="1" stop-color="#925afb"/>
    </linearGradient>
  </defs>
  <path id="hourglass" d="M16.7,9.393V8.81a1.729,1.729,0,0,0-1.724-1.73H9.927A1.729,1.729,0,0,0,8.2,8.81v.584c0,1.247,1.213,2.274,2.1,3.024l.095.08-.1.085c-.885.75-2.1,1.777-2.1,3.024v.584a.977.977,0,0,0,.013.158A1.729,1.729,0,0,0,9.927,17.92h5.048A1.729,1.729,0,0,0,16.7,16.19v-.584c0-1.247-1.213-2.274-2.1-3.024l-.1-.083.1-.083c.885-.75,2.1-1.776,2.1-3.024Zm-1.953,6.213v.36h-4.6v-.358s.016-.18.381-.587a10.682,10.682,0,0,1,1.026-.948l.253-.216q.035-.026.069-.055a1.742,1.742,0,0,0,.571-1.023,1.742,1.742,0,0,0,.572,1.023c.1.086.2.175.316.27a10.685,10.685,0,0,1,1.026.948c.366.407.381.585.382.585Zm-.382-5.628a10.685,10.685,0,0,1-1.026.948c-.112.095-.218.185-.316.271a1.742,1.742,0,0,0-.571,1.022,1.741,1.741,0,0,0-.571-1.023c-.1-.086-.2-.175-.316-.271a10.658,10.658,0,0,1-1.025-.948c-.366-.407-.381-.585-.382-.585v-.36h4.59v.358s-.016.18-.382.587ZM0,6.543V4.2a.977.977,0,1,1,1.953,0V5.788A12.5,12.5,0,0,1,25,12.5a.977.977,0,0,1-1.953,0A10.548,10.548,0,0,0,3.479,7.031H4.784a.977.977,0,0,1,0,1.953H2.441A2.444,2.444,0,0,1,0,6.543ZM25,18.457v2.295a.977.977,0,0,1-1.953,0V19.135A12.5,12.5,0,0,1,12.45,25,12.458,12.458,0,0,1,0,12.5a.977.977,0,1,1,1.953,0A10.517,10.517,0,0,0,21.47,17.969H20.165a.977.977,0,0,1,0-1.953h2.393A2.444,2.444,0,0,1,25,18.457Zm0,0" transform="translate(0.001 0)" fill="url(#linear-gradient)"/>
</svg>
