<svg xmlns="http://www.w3.org/2000/svg" xmlns:xlink="http://www.w3.org/1999/xlink" width="43" height="40.559" viewBox="0 0 43 40.559">
  <defs>
    <filter id="Path_547" x="0" y="0" width="43" height="40.559" filterUnits="userSpaceOnUse">
      <feOffset dy="3" input="SourceAlpha"/>
      <feGaussianBlur stdDeviation="3" result="blur"/>
      <feFlood flood-opacity="0.161"/>
      <feComposite operator="in" in2="blur"/>
      <feComposite in="SourceGraphic"/>
    </filter>
    <filter id="Path_548" x="6.445" y="6.445" width="30.207" height="30.207" filterUnits="userSpaceOnUse">
      <feOffset dy="3" input="SourceAlpha"/>
      <feGaussianBlur stdDeviation="3" result="blur-2"/>
      <feFlood flood-opacity="0.161"/>
      <feComposite operator="in" in2="blur-2"/>
      <feComposite in="SourceGraphic"/>
    </filter>
  </defs>
  <g id="photograph" transform="translate(9 -19)">
    <g id="Group_1113" data-name="Group 1113" transform="translate(0 25)">
      <g id="Group_1112" data-name="Group 1112">
        <g transform="matrix(1, 0, 0, 1, -9, -6)" filter="url(#Path_547)">
          <path id="Path_547-2" data-name="Path 547" d="M24.023,39.746A.977.977,0,0,0,25,38.77V32.422a3.911,3.911,0,0,0-3.906-3.906H19.611a.976.976,0,0,1-.925-.662l-.3-.868A2.929,2.929,0,0,0,15.618,25H9.379a2.938,2.938,0,0,0-2.755,1.935l-.338.936a.979.979,0,0,1-.919.645H3.906A3.911,3.911,0,0,0,0,32.422v11.23a3.911,3.911,0,0,0,3.906,3.906H21.094A3.911,3.911,0,0,0,25,43.652a.977.977,0,0,0-1.953,0,1.955,1.955,0,0,1-1.953,1.953H3.906a1.955,1.955,0,0,1-1.953-1.953V32.422a1.955,1.955,0,0,1,1.953-1.953H5.367a2.938,2.938,0,0,0,2.755-1.935l.338-.936a.979.979,0,0,1,.919-.645h6.239a.976.976,0,0,1,.925.662l.3.868a2.929,2.929,0,0,0,2.773,1.986h1.482a1.955,1.955,0,0,1,1.953,1.953V38.77A.977.977,0,0,0,24.023,39.746Z" transform="translate(9 -19)" fill="#2c1677"/>
        </g>
      </g>
    </g>
    <g id="Group_1115" data-name="Group 1115" transform="translate(6.445 31.445)">
      <g id="Group_1114" data-name="Group 1114">
        <g transform="matrix(1, 0, 0, 1, -15.45, -12.45)" filter="url(#Path_548)">
          <path id="Path_548-2" data-name="Path 548" d="M138.1,157a6.1,6.1,0,1,0,6.1,6.1A6.11,6.11,0,0,0,138.1,157Zm0,10.254a4.15,4.15,0,1,1,4.15-4.15A4.155,4.155,0,0,1,138.1,167.254Z" transform="translate(-116.55 -144.55)" fill="#2c1677"/>
        </g>
      </g>
    </g>
  </g>
</svg>
