<svg xmlns="http://www.w3.org/2000/svg" xmlns:xlink="http://www.w3.org/1999/xlink" width="25" height="25" viewBox="0 0 25 25">
  <defs>
    <style>
      .cls-1 {
        fill: url(#linear-gradient);
      }
    </style>
    <linearGradient id="linear-gradient" x1="0.5" x2="0.5" y2="1" gradientUnits="objectBoundingBox">
      <stop offset="0" stop-color="#fff"/>
      <stop offset="1" stop-color="#ffb4cc"/>
    </linearGradient>
  </defs>
  <path id="film_1_" data-name="film (1)" class="cls-1" d="M24.023,16.455A.977.977,0,0,0,25,15.479V11.133a.977.977,0,0,0-1.481-.836L19.58,12.674A3.906,3.906,0,0,0,17.761,9.4a5.37,5.37,0,1,0-8.923-4.05A4.468,4.468,0,1,0,1.506,9.617,3.9,3.9,0,0,0,0,12.7v8.4A3.911,3.911,0,0,0,3.906,25H15.674a3.911,3.911,0,0,0,3.906-3.906v-.041L23.524,23.4A.977.977,0,0,0,25,22.559v-2.2a.977.977,0,0,0-1.953,0v.48L19.1,18.5a.977.977,0,0,0-1.476.839v1.758a1.955,1.955,0,0,1-1.953,1.953H3.906a1.955,1.955,0,0,1-1.953-1.953V12.7a1.955,1.955,0,0,1,1.953-1.953H15.674A1.955,1.955,0,0,1,17.627,12.7V14.4a.977.977,0,0,0,1.481.836l3.939-2.377v2.616A.977.977,0,0,0,24.023,16.455Zm-9.814-14.5a3.418,3.418,0,1,1-3.418,3.418A3.422,3.422,0,0,1,14.209,1.953Zm-4.14,6.836H8.159a4.441,4.441,0,0,0,.775-2.4A5.354,5.354,0,0,0,10.069,8.789ZM4.468,3.76A2.515,2.515,0,1,1,1.953,6.274,2.518,2.518,0,0,1,4.468,3.76ZM4.883,12.7a.977.977,0,1,1-.977.977A.977.977,0,0,1,4.883,12.7Z"/>
</svg>
