<svg height="24" viewBox="0 0 20.73 24" width="20.73" xmlns="http://www.w3.org/2000/svg" xmlns:xlink="http://www.w3.org/1999/xlink"><linearGradient id="a" gradientUnits="objectBoundingBox" x1="1" x2=".085" y2="1"><stop offset="0" stop-color="#a380e4"/><stop offset="1" stop-color="#925afb"/></linearGradient><path d="m54.054 9.23-14.175-8.737a3.278 3.278 0 0 0 -5 2.791v17.4a3.312 3.312 0 0 0 3.274 3.316h.015a3.289 3.289 0 0 0 1.7-.511.936.936 0 1 0 -.975-1.6 1.436 1.436 0 0 1 -.729.237 1.454 1.454 0 0 1 -1.409-1.448v-17.394a1.406 1.406 0 0 1 2.142-1.2l14.175 8.738a1.406 1.406 0 0 1 -.006 2.4l-10.249 6.278a.936.936 0 0 0 .977 1.6l10.247-6.274a3.278 3.278 0 0 0 .012-5.589z" fill="url(#a)" transform="translate(-34.883)"/></svg>