<svg xmlns="http://www.w3.org/2000/svg" width="17.308" height="17.308" viewBox="0 0 17.308 17.308">
  <path id="chat" d="M.677,17.308a.676.676,0,0,1-.627-.93l1.535-3.8A7.477,7.477,0,0,1,0,7.978,7.625,7.625,0,0,1,2.557,2.316,8.987,8.987,0,0,1,8.654,0a8.987,8.987,0,0,1,6.1,2.316,7.625,7.625,0,0,1,2.556,5.662,7.507,7.507,0,0,1-1.373,4.314.676.676,0,1,1-1.109-.774,6.161,6.161,0,0,0,1.129-3.54c0-3.653-3.276-6.626-7.3-6.626s-7.3,2.972-7.3,6.626a6.18,6.18,0,0,0,1.523,4.049.676.676,0,0,1,.112.692l-1.06,2.623L5.015,13.98a.676.676,0,0,1,.538,0,7.976,7.976,0,0,0,6.66-.213.676.676,0,0,1,.612,1.206,9.335,9.335,0,0,1-7.527.364L.949,17.25A.675.675,0,0,1,.677,17.308Z" transform="translate(0)" fill="#fafafa"/>
</svg>
