<?xml version="1.0" encoding="utf-8"?>
<!-- Generator: Adobe Illustrator 19.1.0, SVG Export Plug-In . SVG Version: 6.00 Build 0)  -->
<svg version="1.1" id="Layer_1" xmlns="http://www.w3.org/2000/svg" xmlns:xlink="http://www.w3.org/1999/xlink" x="0px" y="0px"
	 viewBox="-387.3 294 25 25" style="enable-background:new -387.3 294 25 25;" xml:space="preserve">
<style type="text/css">
	.st0{fill:url(#popular_1_);}
</style>
<linearGradient id="popular_1_" gradientUnits="userSpaceOnUse" x1="-750.5478" y1="601.2775" x2="-750.5478" y2="600.6835" gradientTransform="matrix(20.3142 0 0 -24.9948 14871.9707 15322.7979)">
	<stop  offset="0" style="stop-color:#FAFAFA"/>
	<stop  offset="1" style="stop-color:#FFB4CC"/>
</linearGradient>
<path id="popular" class="st0" d="M-369.2,300.8c-1.9-1.8-3.6-3.3-3.6-5.9c0-0.5-0.4-1-1-1c-0.2,0-0.4,0.1-0.5,0.2l-0.2,0.1
	c-2.2,1.3-4.1,2.9-5.9,4.7c-3.1,3.2-4.6,6.5-4.6,9.9c0,5.5,4.3,10,9.8,10.2c0.1,0,0.2,0,0.3,0h0.1c2.5,0,4.9-0.9,6.8-2.6
	c0.4-0.4,0.4-1,0-1.4c-0.4-0.4-0.9-0.4-1.3-0.1c-0.3,0.3-0.6,0.5-1,0.8c0.2-0.5,0.2-1,0.2-1.5c-0.1-1.5-0.9-2.9-2.1-3.8
	c-0.9-0.9-1.6-1.6-1.6-2.9c0-0.5-0.4-1-1-1c-0.2,0-0.5,0.1-0.6,0.2c-0.2,0.1-4.3,3.7-4.3,7.5c0,0.5,0.1,0.9,0.2,1.3
	c-2.2-1.5-3.5-4.1-3.5-6.7c0-4.1,3-8.4,8.5-12.1c0.2,0.9,0.6,1.8,1.2,2.6c0.8,1.1,1.8,2.1,2.8,3c2,1.8,3.8,3.5,3.9,6.5
	c0,0.8-0.1,1.5-0.3,2.3c-0.1,0.5,0.2,1.1,0.7,1.2c0.5,0.1,1-0.2,1.2-0.7c0.3-0.9,0.4-1.9,0.4-2.8
	C-364.7,304.9-367.1,302.8-369.2,300.8L-369.2,300.8z M-377.8,314.2c0-1.7,1.3-3.5,2.4-4.8c0.5,0.9,1.1,1.7,1.9,2.3
	c0.9,0.9,1.5,1.4,1.5,2.4c0,1.6-1.3,2.8-2.8,2.9h-0.1h-0.1C-376.6,317-377.8,315.7-377.8,314.2L-377.8,314.2z"/>
</svg>
