<svg xmlns="http://www.w3.org/2000/svg" xmlns:xlink="http://www.w3.org/1999/xlink" width="29.428" height="28" viewBox="0 0 29.428 28">
  <defs>
    <filter id="Path_468" x="6.362" y="0" width="23.066" height="28" filterUnits="userSpaceOnUse">
      <feOffset dy="3" input="SourceAlpha"/>
      <feGaussianBlur stdDeviation="3" result="blur"/>
      <feFlood flood-opacity="0.161"/>
      <feComposite operator="in" in2="blur"/>
      <feComposite in="SourceGraphic"/>
    </filter>
    <filter id="Path_469" x="0" y="4.554" width="26.996" height="18.893" filterUnits="userSpaceOnUse">
      <feOffset dy="3" input="SourceAlpha"/>
      <feGaussianBlur stdDeviation="3" result="blur-2"/>
      <feFlood flood-opacity="0.161"/>
      <feComposite operator="in" in2="blur-2"/>
      <feComposite in="SourceGraphic"/>
    </filter>
  </defs>
  <g id="left-arrow" transform="translate(9 6)">
    <g id="Group_833" data-name="Group 833" transform="translate(6.362 0)">
      <g id="Group_832" data-name="Group 832" transform="translate(0 0)">
        <g transform="matrix(1, 0, 0, 1, -15.36, -6)" filter="url(#Path_468)">
          <path id="Path_468-2" data-name="Path 468" d="M4.044,37.3a.447.447,0,0,0,0-.632L.131,32.751a.446.446,0,0,1,.632-.631l3.912,3.922a1.341,1.341,0,0,1,0,1.894L.763,41.858a.446.446,0,0,1-.632-.631Z" transform="translate(15.36 -25.99)" fill="#fafafa"/>
        </g>
      </g>
    </g>
    <g id="Group_835" data-name="Group 835" transform="translate(0 4.554)">
      <g id="Group_834" data-name="Group 834">
        <g transform="matrix(1, 0, 0, 1, -9, -10.55)" filter="url(#Path_469)">
          <path id="Path_469-2" data-name="Path 469" d="M109.425,236h8.1a.446.446,0,0,1,0,.893h-8.1a.446.446,0,0,1,0-.893Z" transform="translate(-99.98 -225.45)" fill="#fafafa"/>
        </g>
      </g>
    </g>
  </g>
</svg>
