<svg xmlns="http://www.w3.org/2000/svg" xmlns:xlink="http://www.w3.org/1999/xlink" width="22.263" height="25.13" viewBox="0 0 22.263 25.13">
  <defs>
    <filter id="question_2_" x="0" y="0" width="22.263" height="25.13" filterUnits="userSpaceOnUse">
      <feOffset dy="3" input="SourceAlpha"/>
      <feGaussianBlur stdDeviation="3" result="blur"/>
      <feFlood flood-opacity="0.161"/>
      <feComposite operator="in" in2="blur"/>
      <feComposite in="SourceGraphic"/>
    </filter>
  </defs>
  <g id="Group_978" data-name="Group 978" transform="translate(2.442 1.615)">
    <path id="chat" d="M.677,17.308a.676.676,0,0,1-.627-.93l1.535-3.8A7.477,7.477,0,0,1,0,7.978,7.625,7.625,0,0,1,2.557,2.316,8.987,8.987,0,0,1,8.654,0a8.987,8.987,0,0,1,6.1,2.316,7.625,7.625,0,0,1,2.556,5.662,7.507,7.507,0,0,1-1.373,4.314.676.676,0,1,1-1.109-.774,6.161,6.161,0,0,0,1.129-3.54c0-3.653-3.276-6.626-7.3-6.626s-7.3,2.972-7.3,6.626a6.18,6.18,0,0,0,1.523,4.049.676.676,0,0,1,.112.692l-1.06,2.623L5.015,13.98a.676.676,0,0,1,.538,0,7.976,7.976,0,0,0,6.66-.213.676.676,0,0,1,.612,1.206,9.335,9.335,0,0,1-7.527.364L.949,17.25A.675.675,0,0,1,.677,17.308Z" transform="translate(0)" fill="#fafafa"/>
    <g transform="matrix(1, 0, 0, 1, -2.44, -1.62)" filter="url(#question_2_)">
      <path id="question_2_2" data-name="question (2)" d="M173.131,127.129a.507.507,0,1,1,.508-.507A.507.507,0,0,1,173.131,127.129Zm.508-2.284v-.681a2.116,2.116,0,1,0-2-3.568,2.078,2.078,0,0,0-.643,1.509.507.507,0,1,0,1.015,0,1.071,1.071,0,0,1,.332-.778,1.123,1.123,0,0,1,.829-.313,1.1,1.1,0,0,1,.2,2.168.949.949,0,0,0-.752.931v.731a.507.507,0,0,0,1.015,0Z" transform="translate(-162 -114)" fill="#fafafa"/>
    </g>
  </g>
</svg>
