<svg xmlns="http://www.w3.org/2000/svg" xmlns:xlink="http://www.w3.org/1999/xlink" width="25" height="25" viewBox="0 0 25 25">
  <defs>
    <linearGradient id="linear-gradient" x1="0.5" x2="0.5" y2="1" gradientUnits="objectBoundingBox">
      <stop offset="0" stop-color="#fff"/>
      <stop offset="1" stop-color="#ffb4cc"/>
    </linearGradient>
  </defs>
  <path id="confetti" d="M2.112,25a.976.976,0,0,1-.692-.287l-.635-.636A.977.977,0,0,1,.579,23l8.4-19.579a.977.977,0,0,1,1.589-.3L22.383,14.964a.977.977,0,0,1-.307,1.588l-7.031,3.006a.977.977,0,0,1-.768-1.8l5.705-2.439L10.2,5.521,2.859,22.642l6.925-2.96a.976.976,0,1,1,.768,1.8L2.5,24.922A.976.976,0,0,1,2.112,25Zm8.233-10.308,1.466-3.418a.977.977,0,0,0-1.8-.77L8.55,13.922a.977.977,0,1,0,1.8.77ZM8.02,16.455A.977.977,0,1,0,9,17.432.976.976,0,0,0,8.02,16.455Zm15.527-12.4a.977.977,0,1,0,.977.977A.976.976,0,0,0,23.547,4.053ZM24.523,0A.977.977,0,1,0,25.5.977.976.976,0,0,0,24.523,0ZM12.512,0a.977.977,0,1,0,.977.977A.976.976,0,0,0,12.512,0ZM19.1,7.178a.977.977,0,1,0,.977.977A.976.976,0,0,0,19.1,7.178Zm1.565-5.225H19.284a.44.44,0,0,1-.459-.28L18.389.333a.484.484,0,0,0-.919,0l-.435,1.341a.44.44,0,0,1-.459.28H15.193a.516.516,0,0,0-.284.923l1.114.823a.48.48,0,0,1,.176.538l-.435,1.332a.483.483,0,0,0,.744.538l1.138-.824a.485.485,0,0,1,.568,0l1.138.824a.483.483,0,0,0,.743-.538l-.435-1.332a.48.48,0,0,1,.175-.538l1.116-.823a.516.516,0,0,0-.284-.923Zm4.5,7.373h-.945a.311.311,0,0,1-.313-.208l-.3-.929a.328.328,0,0,0-.627,0l-.3.929a.311.311,0,0,1-.313.208h-.943a.349.349,0,0,0-.194.626l.76.57a.336.336,0,0,1,.12.373l-.3.923a.33.33,0,0,0,.507.373l.776-.57a.326.326,0,0,1,.387,0l.776.57a.33.33,0,0,0,.507-.373l-.3-.923a.336.336,0,0,1,.12-.373l.761-.57a.349.349,0,0,0-.194-.626Zm0,0" transform="translate(-0.5 0)" fill="url(#linear-gradient)"/>
</svg>
