<svg xmlns="http://www.w3.org/2000/svg" xmlns:xlink="http://www.w3.org/1999/xlink" width="37.428" height="35" viewBox="0 0 37.428 35">
  <defs>
    <linearGradient id="linear-gradient" x1="0.5" x2="0.5" y2="1" gradientUnits="objectBoundingBox">
      <stop offset="0" stop-color="#a380e4"/>
      <stop offset="1" stop-color="#925afb"/>
    </linearGradient>
    <filter id="Path_468" x="0" y="0" width="26.613" height="35" filterUnits="userSpaceOnUse">
      <feOffset dy="3" input="SourceAlpha"/>
      <feGaussianBlur stdDeviation="3" result="blur"/>
      <feFlood flood-opacity="0.161"/>
      <feComposite operator="in" in2="blur"/>
      <feComposite in="SourceGraphic"/>
    </filter>
    <filter id="Path_469" x="4.135" y="7.741" width="33.292" height="19.518" filterUnits="userSpaceOnUse">
      <feOffset dy="3" input="SourceAlpha"/>
      <feGaussianBlur stdDeviation="3" result="blur-2"/>
      <feFlood flood-opacity="0.161"/>
      <feComposite operator="in" in2="blur-2"/>
      <feComposite in="SourceGraphic"/>
    </filter>
  </defs>
  <g id="left-arrow" transform="translate(9 -25.989)">
    <g id="Group_833" data-name="Group 833" transform="translate(0 31.989)">
      <g id="Group_832" data-name="Group 832" transform="translate(0 0)">
        <g transform="matrix(1, 0, 0, 1, -9, -6)" filter="url(#Path_468)">
          <path id="Path_468-2" data-name="Path 468" d="M1.74,41.026a.76.76,0,0,1,0-1.074l6.651-6.668a.759.759,0,0,0-1.075-1.072L.666,38.879a2.279,2.279,0,0,0,0,3.219l6.651,6.668a.759.759,0,0,0,1.075-1.072Z" transform="translate(9 -25.99)" fill="url(#linear-gradient)"/>
        </g>
      </g>
    </g>
    <g id="Group_835" data-name="Group 835" transform="translate(4.136 39.73)">
      <g id="Group_834" data-name="Group 834">
        <g transform="matrix(1, 0, 0, 1, -13.14, -13.74)" filter="url(#Path_469)">
          <path id="Path_469-2" data-name="Path 469" d="M123.513,236H109.738a.759.759,0,0,0,0,1.518h13.775a.759.759,0,0,0,0-1.518Z" transform="translate(-95.84 -222.26)" fill="url(#linear-gradient)"/>
        </g>
      </g>
    </g>
  </g>
</svg>
