<svg xmlns="http://www.w3.org/2000/svg" xmlns:xlink="http://www.w3.org/1999/xlink" width="47.506" height="43" viewBox="0 0 47.506 43">
  <defs>
    <filter id="Path_1760" x="0" y="0" width="47.506" height="43" filterUnits="userSpaceOnUse">
      <feOffset dy="3" input="SourceAlpha"/>
      <feGaussianBlur stdDeviation="3" result="blur"/>
      <feFlood flood-opacity="0.161"/>
      <feComposite operator="in" in2="blur"/>
      <feComposite in="SourceGraphic"/>
    </filter>
  </defs>
  <g id="icon-influencer1" transform="translate(9 6)">
    <g transform="matrix(1, 0, 0, 1, -9, -6)" filter="url(#Path_1760)">
      <path id="Path_1760-2" data-name="Path 1760" d="M28.682,143.463a3.4,3.4,0,0,0,.805-1.518.691.691,0,1,0-1.345-.317,2.033,2.033,0,0,1-3.416.969c-.356-.356-1.026-1.786-1.855-4.73a18.151,18.151,0,0,1,4.615,1.758.691.691,0,0,0,.827-1.108,7.249,7.249,0,0,0-1.451-.769,12.548,12.548,0,0,0,.2-5.6,13.24,13.24,0,0,0-.485-1.8,12.5,12.5,0,0,0-21.064-4.239.691.691,0,1,0,1.025.927,11.12,11.12,0,0,1,19.019,10.211c-.865-.3-1.785-.572-2.6-.8a1.222,1.222,0,0,0-1.5,1.5,30.31,30.31,0,0,0,1.409,4.173,11.115,11.115,0,0,1-16.165,0,30.315,30.315,0,0,0,1.409-4.173,1.222,1.222,0,0,0-1.5-1.5q-1.483.409-2.6.795a11.143,11.143,0,0,1-.345-2.752A10.994,10.994,0,0,1,4.9,129.417a.691.691,0,0,0-1.229-.633,12.536,12.536,0,0,0-.954,8.963,5.667,5.667,0,0,0-1.716,1,3.415,3.415,0,1,0,4.829,4.829A2.206,2.206,0,0,0,6,143.385a12.5,12.5,0,0,0,17.586,0,2.2,2.2,0,0,0,.167.19,3.393,3.393,0,0,0,2.415,1,6.274,6.274,0,0,0,1.34-.273A2.5,2.5,0,0,0,28.682,143.463Zm-25.267-.27a2.033,2.033,0,0,1-1.437-3.47c.356-.356,1.786-1.026,4.73-1.855-.829,2.944-1.5,4.373-1.855,4.73a2.019,2.019,0,0,1-1.437.6Z" transform="translate(9 -116)" fill="#ffe5ed"/>
    </g>
    <path id="Path_1764" data-name="Path 1764" d="M91.473,271.862a6.288,6.288,0,0,0,12.5,0,1,1,0,0,0-1.067-1.1c-1.839.132-3.584.2-5.184.2s-3.345-.067-5.184-.2a1,1,0,0,0-1.067,1.1Zm6.251.481c1.494,0,3.108-.057,4.8-.17a4.907,4.907,0,0,1-9.61,0C94.616,272.286,96.23,272.343,97.724,272.343Z" transform="translate(-82.935 -256.882)" fill="#ffe5ed"/>
    <path id="Path_1765" data-name="Path 1765" d="M385.479,187.76a2.553,2.553,0,1,0-2.832,4.215,6.239,6.239,0,0,1,2.133,1.831.872.872,0,0,0,.7.353h0a.873.873,0,0,0,.7-.353,6.236,6.236,0,0,1,2.133-1.831,2.553,2.553,0,0,0-.869-4.791h0A2.548,2.548,0,0,0,385.479,187.76Zm2.8,1.823a1.171,1.171,0,0,1-.618,1.169,6.9,6.9,0,0,0-1.559,1.094,7.37,7.37,0,0,0-.628.628,7.383,7.383,0,0,0-.627-.628,6.907,6.907,0,0,0-1.559-1.094,1.17,1.17,0,1,1,1.529-1.669.782.782,0,0,0,1.315,0,1.171,1.171,0,0,1,1.136-.527h0A1.171,1.171,0,0,1,388.284,189.584Z" transform="translate(-375.009 -181.179)" fill="#ffe5ed"/>
    <path id="Path_1766" data-name="Path 1766" d="M385.479,187.76a2.553,2.553,0,1,0-2.832,4.215,6.239,6.239,0,0,1,2.133,1.831.872.872,0,0,0,.7.353h0a.873.873,0,0,0,.7-.353,6.236,6.236,0,0,1,2.133-1.831,2.553,2.553,0,0,0-.869-4.791h0A2.548,2.548,0,0,0,385.479,187.76Zm2.8,1.823a1.171,1.171,0,0,1-.618,1.169,6.9,6.9,0,0,0-1.559,1.094,7.37,7.37,0,0,0-.628.628,7.383,7.383,0,0,0-.627-.628,6.907,6.907,0,0,0-1.559-1.094,1.17,1.17,0,1,1,1.529-1.669.782.782,0,0,0,1.315,0,1.171,1.171,0,0,1,1.136-.527h0A1.171,1.171,0,0,1,388.284,189.584Z" transform="translate(-366.333 -181.179)" fill="#ffe5ed"/>
  </g>
</svg>
