<svg xmlns="http://www.w3.org/2000/svg" xmlns:xlink="http://www.w3.org/1999/xlink" width="30.19" height="30.19" viewBox="0 0 30.19 30.19">
  <defs>
    <filter id="nice" x="0" y="0" width="30.19" height="30.19" filterUnits="userSpaceOnUse">
      <feOffset dy="3" input="SourceAlpha"/>
      <feGaussianBlur stdDeviation="3" result="blur"/>
      <feFlood flood-opacity="0.161"/>
      <feComposite operator="in" in2="blur"/>
      <feComposite in="SourceGraphic"/>
    </filter>
  </defs>
  <g transform="matrix(1, 0, 0, 1, 0, 0)" filter="url(#nice)">
    <path id="nice-2" data-name="nice" d="M6.386,8.039,3.769,11.681l-.016.02a1.405,1.405,0,0,1-1.018.488,1.311,1.311,0,0,1-.9-.36l-1.687-1.6A.476.476,0,0,1,.8,9.535l1.687,1.6A.354.354,0,0,0,3,11.113L5.612,7.483a.476.476,0,0,1,.773.556Zm5.457.16a1.378,1.378,0,0,0,.347-.914,1.355,1.355,0,0,0-.523-1.071A1.356,1.356,0,0,0,10.5,4.166H7.366c-.238,0-.571-.152-.606-.4.053-.211.881-1.872.881-1.872A1.429,1.429,0,0,0,5.27.428a5.438,5.438,0,0,0-.327.448L2.618,4.5a.315.315,0,0,1-.266.145H.475a.476.476,0,0,0,0,.952H2.352a1.263,1.263,0,0,0,1.067-.583L5.972,1.073A.472.472,0,0,1,6.3.952a.477.477,0,0,1,.453.607,15.694,15.694,0,0,0-.942,2.193v.018a1.511,1.511,0,0,0,1.56,1.348H10.5a.4.4,0,0,1,.229.738.569.569,0,0,0-.276.477.593.593,0,0,0,.479.56.41.41,0,0,1,.307.393.391.391,0,0,1-.335.4.522.522,0,0,0-.252,1l.022.012a.4.4,0,0,1-.208.754h-.107a.564.564,0,0,0-.6.54.53.53,0,0,0,.307.472.411.411,0,0,1-.193.773H5.5a.476.476,0,0,0,0,.952H9.875A1.333,1.333,0,0,0,11.237,10.8a1.281,1.281,0,0,0-.127-.553,1.348,1.348,0,0,0,.541-1.865,1.35,1.35,0,0,0,.191-.178Z" transform="translate(9 6)" fill="#fafafa"/>
  </g>
</svg>
