<?xml version="1.0" encoding="utf-8"?>
<!-- Generator: Adobe Illustrator 19.1.0, SVG Export Plug-In . SVG Version: 6.00 Build 0)  -->
<svg version="1.1" id="Layer_1" xmlns="http://www.w3.org/2000/svg" xmlns:xlink="http://www.w3.org/1999/xlink" x="0px" y="0px"
	 viewBox="0 0 45 45" style="enable-background:new 0 0 45 45;" xml:space="preserve">
<style type="text/css">
	.st0{fill:url(#joystick-2_2_);}
</style>
<g>
	
		<linearGradient id="joystick-2_2_" gradientUnits="userSpaceOnUse" x1="-3969.6609" y1="-271.2066" x2="-3969.6609" y2="-269.5128" gradientTransform="matrix(30.0029 0 0 19.919 119123.875 5407.5913)">
		<stop  offset="0" style="stop-color:#FFFFFF"/>
		<stop  offset="1" style="stop-color:#F7B2CA"/>
	</linearGradient>
	<path id="joystick-2_1_" class="st0" d="M44.6,32.6c-0.3,0.9-1.2,1.5-2.2,1.1c-0.9-0.3-1.5-1.3-1.1-2.1c0.3-1,0.3-2.2-0.1-3.2
		l-4-15.9c-0.7-2.2-2.8-3.8-5.1-3.8h-19c-2.3,0-4.4,1.5-5.1,3.8L4,28.4c-0.4,1.4-0.3,2.9,0.3,4.2c1.2,2.6,4.5,3.8,7.2,2.5h0.1
		c1.2-0.6,2.3-1.8,2.7-3.1l0.2-0.7c0.7-2.2,2.8-3.6,5.1-3.6h6c2.3,0,4.4,1.5,5.1,3.6l0.2,0.7c0.7,2.2,2.8,3.8,5.1,3.8
		c0.4,0,0.8-0.1,1.4-0.2c0.9-0.2,1.9,0.4,2.1,1.4s-0.3,1.8-1.2,2.1c-0.7,0.2-1.5,0.3-2.2,0.3c-1.9,0-3.6-0.6-5.2-1.7
		c-1.6-1.1-2.7-2.7-3.3-4.5l-0.2-0.7c-0.2-0.7-0.9-1.3-1.8-1.3h-6c-0.8,0-1.6,0.5-1.8,1.3l-0.2,0.8c-0.7,2.3-2.3,4.1-4.5,5.2
		c-4.4,2.2-9.7,0.5-11.9-3.9c0,0,0-0.1-0.1-0.1c-1-2.1-1.2-4.6-0.5-6.8l4-15.9C5.8,8.1,9.1,5.6,13,5.6h19c3.9,0,7.3,2.5,8.4,6.2
		l4,15.9C45,29,45,30.8,44.6,32.6L44.6,32.6z M30.9,14.6c-0.9,0-1.8,0.7-1.8,1.8s0.7,1.8,1.8,1.8s1.8-0.7,1.8-1.8l0,0
		C32.7,15.4,31.8,14.6,30.9,14.6L30.9,14.6L30.9,14.6z M30.9,25.1c0.9,0,1.8-0.8,1.8-1.8c0-0.9-0.8-1.8-1.8-1.8
		c-0.9,0-1.8,0.8-1.8,1.8C29.1,24.3,30,25.1,30.9,25.1L30.9,25.1z M27.3,18.1c-0.9,0-1.8,0.8-1.8,1.8c0,0.9,0.8,1.8,1.8,1.8
		c0.9,0,1.8-0.8,1.8-1.8C29.1,19,28.3,18.1,27.3,18.1L27.3,18.1z M34.3,21.6c0.9,0,1.8-0.8,1.8-1.8S35.3,18,34.3,18
		s-1.8,0.8-1.8,1.8C32.7,20.8,33.4,21.6,34.3,21.6L34.3,21.6z M14.2,25.1c0.9,0,1.8-0.8,1.8-1.8v-1.8h1.8c0.9,0,1.8-0.8,1.8-1.8
		c0-0.9-0.8-1.8-1.8-1.8H16v-1.8c0-0.9-0.8-1.8-1.8-1.8c-0.9,0-1.8,0.8-1.8,1.8l0,0V18h-1.8c-0.9,0-1.8,0.8-1.8,1.8
		c0,0.9,0.8,1.8,1.8,1.8l0,0h1.8v1.8C12.5,24.3,13.3,25.1,14.2,25.1z"/>
</g>
</svg>
