<svg xmlns="http://www.w3.org/2000/svg" xmlns:xlink="http://www.w3.org/1999/xlink" width="48.129" height="48.129" viewBox="0 0 48.129 48.129">
  <defs>
    <filter id="nice" x="0" y="0" width="48.129" height="48.129" filterUnits="userSpaceOnUse">
      <feOffset dy="3" input="SourceAlpha"/>
      <feGaussianBlur stdDeviation="3" result="blur"/>
      <feFlood flood-opacity="0.161"/>
      <feComposite operator="in" in2="blur"/>
      <feComposite in="SourceGraphic"/>
    </filter>
  </defs>
  <g transform="matrix(1, 0, 0, 1, 0, 0)" filter="url(#nice)">
    <path id="nice-2" data-name="nice" d="M15.784,19.87l-6.467,9-.038.051a3.474,3.474,0,0,1-2.516,1.207,3.239,3.239,0,0,1-2.229-.89L.365,25.273a1.177,1.177,0,0,1,1.622-1.706l4.17,3.965a.876.876,0,0,0,1.271-.066l6.445-8.97a1.177,1.177,0,0,1,1.912,1.373Zm13.487.4a3.406,3.406,0,0,0,.857-2.26,3.35,3.35,0,0,0-1.294-2.647A3.351,3.351,0,0,0,25.95,10.3H18.208c-.587,0-1.412-.375-1.5-.992.131-.521,2.177-4.628,2.177-4.628a3.531,3.531,0,0,0-5.861-3.619,13.442,13.442,0,0,0-.807,1.107l-5.748,8.95a.777.777,0,0,1-.657.359H1.176a1.177,1.177,0,0,0,0,2.354H5.815a3.122,3.122,0,0,0,2.638-1.441l6.31-9.734a1.167,1.167,0,0,1,.8-.3,1.179,1.179,0,0,1,1.12,1.5c-.17.344-2.329,4.714-2.329,5.421V9.32a3.734,3.734,0,0,0,3.855,3.331H25.95a1,1,0,0,1,.565,1.823,1.406,1.406,0,0,0-.683,1.178,1.466,1.466,0,0,0,1.183,1.383,1.014,1.014,0,0,1,.759.971.966.966,0,0,1-.828.989,1.29,1.29,0,0,0-.624,2.472l.055.03a.995.995,0,0,1-.515,1.864H25.6A1.393,1.393,0,0,0,24.126,24.7a1.309,1.309,0,0,0,.759,1.167,1.015,1.015,0,0,1-.477,1.912H13.592a1.177,1.177,0,0,0,0,2.354H24.407a3.3,3.3,0,0,0,3.367-3.447,3.165,3.165,0,0,0-.313-1.367A3.331,3.331,0,0,0,28.8,20.706a3.337,3.337,0,0,0,.473-.441Z" transform="translate(9 6)" fill="#fafafa"/>
  </g>
</svg>
