<svg xmlns="http://www.w3.org/2000/svg" xmlns:xlink="http://www.w3.org/1999/xlink" width="21.695" height="24.18" viewBox="0 0 21.695 24.18">
  <defs>
    <filter id="question_2_" x="0" y="0" width="21.695" height="24.18" filterUnits="userSpaceOnUse">
      <feOffset dy="3" input="SourceAlpha"/>
      <feGaussianBlur stdDeviation="3" result="blur"/>
      <feFlood flood-opacity="0.161"/>
      <feComposite operator="in" in2="blur"/>
      <feComposite in="SourceGraphic"/>
    </filter>
  </defs>
  <g id="Group_880" data-name="Group 880" transform="translate(-327.684 -516.2)">
    <path id="chat" d="M.586,15a.586.586,0,0,1-.543-.806L1.373,10.9A6.48,6.48,0,0,1,0,6.914,6.609,6.609,0,0,1,2.216,2.007,7.788,7.788,0,0,1,7.5,0a7.789,7.789,0,0,1,5.285,2.007A6.609,6.609,0,0,1,15,6.914a6.506,6.506,0,0,1-1.19,3.739.586.586,0,1,1-.961-.671,5.34,5.34,0,0,0,.978-3.068c0-3.166-2.839-5.742-6.328-5.742S1.172,3.748,1.172,6.914a5.356,5.356,0,0,0,1.32,3.509.586.586,0,0,1,.1.6L1.67,13.3l2.676-1.18a.586.586,0,0,1,.466,0,6.913,6.913,0,0,0,5.772-.185.586.586,0,0,1,.531,1.045,8.09,8.09,0,0,1-6.524.315L.823,14.95A.585.585,0,0,1,.586,15Z" transform="translate(331 518.4)" fill="#fafafa"/>
    <g transform="matrix(1, 0, 0, 1, 327.68, 516.2)" filter="url(#question_2_)">
      <path id="question_2_2" data-name="question (2)" d="M172.847,126.179a.44.44,0,1,1,.44-.44A.44.44,0,0,1,172.847,126.179Zm.44-1.979v-.591a1.834,1.834,0,1,0-1.73-3.092,1.8,1.8,0,0,0-.557,1.308.44.44,0,1,0,.88,0,.928.928,0,0,1,.288-.674.973.973,0,0,1,.718-.271.95.95,0,0,1,.174,1.879.822.822,0,0,0-.652.807v.634a.44.44,0,1,0,.88,0Z" transform="translate(-162 -114)" fill="#fafafa"/>
    </g>
  </g>
</svg>
