<svg id="Layer_1" data-name="Layer 1" xmlns="http://www.w3.org/2000/svg" xmlns:xlink="http://www.w3.org/1999/xlink" viewBox="0 0 30 30"><defs><style>.cls-1{fill:url(#linear-gradient);}</style><linearGradient id="linear-gradient" x1="14.89" y1="-0.17" x2="15.09" y2="28.63" gradientUnits="userSpaceOnUse"><stop offset="0" stop-color="#fffbfc"/><stop offset="0.37" stop-color="#ffdce7"/><stop offset="0.77" stop-color="#ffc0d4"/><stop offset="1" stop-color="#ffb6cd"/></linearGradient></defs><title>Icon International</title><path class="cls-1" d="M28,7.5A15,15,0,0,0,7.5,2,15,15,0,0,0,2,22.5,15,15,0,0,0,15,30a14.85,14.85,0,0,0,5.36-1,.9.9,0,0,0,.48-.46.84.84,0,0,0,0-.66.85.85,0,0,0-.45-.48.89.89,0,0,0-.66,0A13.14,13.14,0,0,1,7.21,25.76l.45-2.34.08,0a2.09,2.09,0,0,0,1.34-2.62l-.19-.56a.37.37,0,0,1,0-.21,2.07,2.07,0,0,0-.18-1.7,2.11,2.11,0,0,0-1.39-1l-1.23-.24L3.64,15.21a.9.9,0,0,0-.79-.14l-1.1.36c0-.18,0-.37,0-.55a1,1,0,0,0,.41.07,8.75,8.75,0,0,0,1.07-.12l1-.15a.85.85,0,0,0,.65-.52.83.83,0,0,0-.08-.82l-.54-.8L5,12a.78.78,0,0,0,.24-.27L6.8,9l.61-.65a2.72,2.72,0,0,0,.52-2.89A2.89,2.89,0,0,0,7.1,4.34a14.54,14.54,0,0,1,1.27-.83,13.31,13.31,0,0,1,5.85-1.75l-.58.73L9.92,3.8a.91.91,0,0,0-.52.48L8.34,6.86a.85.85,0,0,0,.1.83l1.41,2a6.45,6.45,0,0,0-.56.72L9,10.77,8.83,11a5.62,5.62,0,0,0-1,1.36,3.68,3.68,0,0,0,.31,3.75,3.51,3.51,0,0,0,3.31,1.43c.22,0,.42-.08.6-.12.39-.1.48-.1.53-.07v.13a2.26,2.26,0,0,0,.06.64,2.09,2.09,0,0,0,.55.92,1,1,0,0,1,.15.18c.14.33.09.48-.07,1l-.05.13a3.51,3.51,0,0,0,.44,2.52c.1.22.19.43.25.6.55,1.64,1,2,1.37,2.2a1.44,1.44,0,0,0,.62.13,3.63,3.63,0,0,0,2.32-1.36,2.07,2.07,0,0,0,.41-1c0-.06,0-.14,0-.16s.09-.11.16-.2a2.34,2.34,0,0,0,.53-.88,1,1,0,0,1,.34-.52l.11-.12a2.12,2.12,0,0,0,.42-2.43c-.11-.37,0-.6.8-1.32a6.24,6.24,0,0,0,1-1,1.43,1.43,0,0,0,.27-1.43,1.59,1.59,0,0,0-1.38-.8,3.08,3.08,0,0,1-.39-.07,2.58,2.58,0,0,1-.67-1.06l0-.05c0-.08-.07-.16-.1-.23s-.14-.34-.22-.54a5.09,5.09,0,0,0-.91-1.68,3.88,3.88,0,0,0-1.79-.81L16.3,10a.85.85,0,0,0-.5,0,1.78,1.78,0,0,0-.73.31l-.12.12-.27-.18a1.1,1.1,0,0,0-.11-.53c-.4-.86-1.64-.8-1.88-.78l-.42,0H12a1.2,1.2,0,0,1,.88-.39h.32a.87.87,0,1,0,0-1.73h-.32a2.94,2.94,0,0,0-2.23,1l-.53-.74.74-1.78L14.45,4a.83.83,0,0,0,.39-.28L16.4,1.82a13.22,13.22,0,0,1,11.37,9.6l-.11.09a2.3,2.3,0,0,0-.35.42l-.09-.26a1.65,1.65,0,0,0-.31-.53l-.71-.83a1.72,1.72,0,0,0-1.32-.61H24a1.14,1.14,0,0,0-1,.59,1.16,1.16,0,0,0,0,1.07,6.21,6.21,0,0,1-1.38.82l-1-2V9.76a.9.9,0,0,0-.27-.63l-1.07-1A1,1,0,0,0,19,7.92l-1-.33a.87.87,0,0,0-.67,0,.92.92,0,0,0-.44.49.87.87,0,0,0,.53,1.11l.79.27.67.64v.28a.9.9,0,0,0,.09.4l1.49,2.85a.87.87,0,0,0,1.07.41l.43-.16a7.94,7.94,0,0,0,2.8-1.79.85.85,0,0,0,.25-.53l.57.67.78,2.15A.88.88,0,0,0,27,15a.92.92,0,0,0,.8-.23l.37-.38.06-.07a13.36,13.36,0,0,1-5,11.15.88.88,0,0,0-.33.58.84.84,0,0,0,.18.63.87.87,0,0,0,1.22.15A15,15,0,0,0,28,7.5ZM2.53,11.62a.87.87,0,0,0-.21,1.19l.25.37H2.43l-.49-.45a13.37,13.37,0,0,1,3.8-7.23,1.12,1.12,0,0,1,.59.62,1,1,0,0,1-.19,1l-.67.73a.61.61,0,0,0-.12.16l-1.5,2.62Zm4.72,9.13.18.56a.35.35,0,0,1-.22.44l-.57.18a.88.88,0,0,0-.59.66l-.36,1.88a14,14,0,0,1-2.18-2.83A13.21,13.21,0,0,1,1.92,17.2l1-.34L5.2,18.57a.78.78,0,0,0,.36.16L7,19a.35.35,0,0,1,.23.16.37.37,0,0,1,0,.29A2,2,0,0,0,7.25,20.75Zm6.33-9.22a3.56,3.56,0,0,0,1.57.72,1.24,1.24,0,0,0,1-.42l.09-.08.09,0a4.39,4.39,0,0,1,1,.33,3.83,3.83,0,0,1,.55,1.11c.09.23.17.44.27.65a2.14,2.14,0,0,1,.1.22l0,0a3.85,3.85,0,0,0,1.31,1.81,2,2,0,0,0,.68.26l-.37.36c-.73.68-1.73,1.61-1.27,3.1.16.52.16.52,0,.74l-.12.12a2.63,2.63,0,0,0-.71,1.17.64.64,0,0,1-.18.26,2.59,2.59,0,0,0-.35.47,1.82,1.82,0,0,0-.24.7.67.67,0,0,1-.06.21,3.58,3.58,0,0,1-.66.58l-.2.11a6,6,0,0,1-.47-1.12c-.09-.26-.2-.51-.32-.77-.21-.47-.45-1-.36-1.27l0-.13a2.73,2.73,0,0,0,0-2.19,2.31,2.31,0,0,0-.47-.68l-.16-.18v-.2a1.74,1.74,0,0,0-.54-1.39,2.12,2.12,0,0,0-2.15-.36c-.14,0-.27.07-.37.08a1.79,1.79,0,0,1-1.71-.72,2,2,0,0,1-.15-2,4.21,4.21,0,0,1,.7-.95c.07-.07.13-.15.2-.23a5.65,5.65,0,0,0,.39-.51,6.2,6.2,0,0,1,.47-.62,3.89,3.89,0,0,1,1.16-.15h.39a.08.08,0,0,0,0,0,.85.85,0,0,0,.44.63A4.61,4.61,0,0,1,13.58,11.53Z"/></svg>