<?xml version="1.0" encoding="utf-8"?>
<!-- Generator: Adobe Illustrator 19.1.0, SVG Export Plug-In . SVG Version: 6.00 Build 0)  -->
<svg version="1.1" id="Layer_1" xmlns="http://www.w3.org/2000/svg" xmlns:xlink="http://www.w3.org/1999/xlink" x="0px" y="0px"
	 viewBox="-374 285 43 43" style="enable-background:new -374 285 43 43;" xml:space="preserve">
<style type="text/css">
	.st0{fill:url(#basketball-2_2_);}
</style>
<g transform="matrix(1, 0, 0, 1, 0, 0)">
	
		<linearGradient id="basketball-2_2_" gradientUnits="userSpaceOnUse" x1="-1450.6206" y1="12.1049" x2="-1450.6206" y2="13.8246" gradientTransform="matrix(25.0011 0 0 23.0026 35914.6094 9.9884)">
		<stop  offset="0" style="stop-color:#FFFFFF"/>
		<stop  offset="1" style="stop-color:#FFB4CC"/>
	</linearGradient>
	<path id="basketball-2_1_" class="st0" d="M-337.3,291.3c-8.4-8.4-22-8.4-30.4,0s-8.4,22,0,30.4c7,7,17.9,8.3,26.3,3.2
		c0.8-0.5,1-1.5,0.5-2.3s-1.5-1-2.3-0.6c-2.3,1.4-5,2.3-7.7,2.5v-16.4h6c0.2,2.3,0.7,4.6,1.6,6.7c0.4,0.9,1.3,1.3,2.2,0.9
		c0.9-0.4,1.3-1.3,0.9-2.2c-0.7-1.7-1.2-3.5-1.4-5.4h7c-0.3,3-1.3,5.9-3,8.4c-0.5,0.8-0.4,1.8,0.4,2.3s1.8,0.4,2.3-0.4
		c0,0,0-0.1,0.1-0.1C-328.9,309.9-330,298.5-337.3,291.3z M-337.9,295.7c2,2.7,3.2,5.8,3.5,9.1h-7
		C-341.1,301.5-339.9,298.4-337.9,295.7z M-354.2,288.4v16.4h-6c-0.2-2.3-0.7-4.5-1.6-6.6c-0.4-0.8-1.4-1.2-2.2-0.8
		c-0.8,0.4-1.1,1.3-0.9,2.1c0.7,1.7,1.2,3.5,1.3,5.3h-7C-369.7,296.1-362.9,289.3-354.2,288.4z M-367.1,317.3
		c-2-2.7-3.2-5.8-3.5-9.1h7C-363.9,311.5-365.1,314.6-367.1,317.3z M-354.2,324.6c-4-0.4-7.7-2-10.6-4.7c2.6-3.3,4.2-7.4,4.6-11.7h6
		V324.6z M-350.8,288.4c4,0.4,7.7,2,10.6,4.7c-2.6,3.3-4.2,7.4-4.6,11.7h-6V288.4z"/>
</g>
</svg>
