<?xml version="1.0" encoding="utf-8"?>
<!-- Generator: Adobe Illustrator 19.1.0, SVG Export Plug-In . SVG Version: 6.00 Build 0)  -->
<svg version="1.1" id="Layer_1" xmlns="http://www.w3.org/2000/svg" xmlns:xlink="http://www.w3.org/1999/xlink" x="0px" y="0px"
	 viewBox="-374 285 43 43" style="enable-background:new -374 285 43 43;" xml:space="preserve">
<style type="text/css">
	.st0{fill:url(#sing-2_1_);}
</style>
<g transform="matrix(1, 0, 0, 1, 0, 0)">
	
		<linearGradient id="sing-2_1_" gradientUnits="userSpaceOnUse" x1="-732.5322" y1="601.8801" x2="-732.5322" y2="600.1602" gradientTransform="matrix(24.9954 0 0 -25.0003 17957.5449 15332.2021)">
		<stop  offset="0" style="stop-color:#FFFFFF"/>
		<stop  offset="1" style="stop-color:#FFB4CC"/>
	</linearGradient>
	<path id="sing-2" class="st0" d="M-333.5,287.6c-3.5-3.5-9.2-3.5-12.7,0c0,0,0,0,0,0l-7.9,7.9c-0.2,0.2-0.3,0.4-0.4,0.7l-1.2,4.1
		l-1.8-1.8c-0.7-0.7-1.7-0.7-2.4,0c0,0,0,0,0,0l-7.4,7.4c-0.7,0.7-0.7,1.7,0,2.4c0,0,0,0,0,0l2.9,2.9l-8.4,9.2l-0.1,0.1
		c-1.6,2-1.3,4.8,0.6,6.4c1.7,1.4,4.1,1.4,5.8,0l0.1-0.1l9.1-8.4l3,3c0.7,0.7,1.7,0.7,2.4,0c0,0,0,0,0,0l7.4-7.4
		c0.7-0.7,0.7-1.7,0-2.4c0,0,0,0,0,0l-1.7-1.7l4-1.2c0.3-0.1,0.5-0.2,0.7-0.4l1.9-1.9c0.7-0.7,0.7-1.7,0-2.4c-0.7-0.7-1.7-0.7-2.4,0
		l-1.6,1.6l-5.3,1.6l-4.3-4.3l1.4-4.5l4.2,4.2c0.7,0.7,1.7,0.7,2.4,0c0.7-0.7,0.7-1.7,0-2.4l-4.5-4.5l5.8-5.8c2.3-2.1,5.9-1.9,8,0.4
		c2,2.2,2,5.5,0,7.7l-0.7,0.7c-0.7,0.7-0.7,1.7,0,2.4c0.7,0.7,1.7,0.7,2.4,0l0.7-0.7C-330,296.9-330,291.2-333.5,287.6L-333.5,287.6
		z M-368.6,324.4c-0.5,0.4-1.3,0.3-1.7-0.2c-0.4-0.4-0.4-1.1,0-1.5l8.3-9l2.4,2.4L-368.6,324.4z M-353,317.9l-10.8-10.8l5-5
		l10.8,10.8L-353,317.9z"/>
</g>
</svg>
