<svg xmlns="http://www.w3.org/2000/svg" xmlns:xlink="http://www.w3.org/1999/xlink" width="35.226" height="35.226" viewBox="0 0 35.226 35.226">
  <defs>
    <linearGradient id="linear-gradient" x1="0.5" x2="0.5" y2="1" gradientUnits="objectBoundingBox">
      <stop offset="0" stop-color="#ffb4cc"/>
      <stop offset="1" stop-color="#fff"/>
    </linearGradient>
    <linearGradient id="linear-gradient-2" x1="0.5" x2="0.5" y2="1" gradientUnits="objectBoundingBox">
      <stop offset="0" stop-color="#fff"/>
      <stop offset="1" stop-color="#ff9bc3"/>
    </linearGradient>
  </defs>
  <g id="icon-influencer" transform="translate(-252.465 -979.352)">
    <g id="Group_1505" data-name="Group 1505" transform="translate(259.445 988.684)">
      <g id="Group_1492" data-name="Group 1492" transform="translate(-6.98 -9.332)">
        <path id="Path_1770" data-name="Path 1770" d="M24.55,4.212A14.381,14.381,0,0,0,4.212,24.55a14.387,14.387,0,0,0,17.61,2.14,1.124,1.124,0,0,0-1.164-1.922,12.242,12.242,0,1,1,3.8-3.652,1.124,1.124,0,0,0,1.868,1.249A14.346,14.346,0,0,0,24.55,4.212Z" transform="matrix(-0.966, 0.259, -0.259, -0.966, 35.226, 27.782)" fill="url(#linear-gradient)"/>
        <path id="Path_1764" data-name="Path 1764" d="M91.474,272.021a7.2,7.2,0,0,0,14.3,0,1.142,1.142,0,0,0-1.22-1.259c-2.1.151-4.1.228-5.932.228s-3.827-.077-5.932-.228a1.142,1.142,0,0,0-1.22,1.259Zm7.152.55c1.709,0,3.556-.065,5.5-.194a5.615,5.615,0,0,1-11,0C95.07,272.507,96.917,272.572,98.626,272.572Z" transform="translate(-80.955 -251.126)" fill="url(#linear-gradient-2)"/>
        <path id="Path_1765" data-name="Path 1765" d="M386.084,187.846a2.921,2.921,0,1,0-3.24,4.822,7.139,7.139,0,0,1,2.44,2.095,1,1,0,0,0,.8.4h0a1,1,0,0,0,.8-.4,7.134,7.134,0,0,1,2.44-2.095,2.921,2.921,0,0,0-.994-5.482h0A2.915,2.915,0,0,0,386.084,187.846Zm3.209,2.086a1.34,1.34,0,0,1-.707,1.338,7.9,7.9,0,0,0-1.784,1.252,8.438,8.438,0,0,0-.718.718,8.453,8.453,0,0,0-.718-.718,7.905,7.905,0,0,0-1.784-1.252,1.339,1.339,0,1,1,1.75-1.91.9.9,0,0,0,1.5,0,1.34,1.34,0,0,1,1.3-.6h0A1.339,1.339,0,0,1,389.293,189.932Z" transform="translate(-373.354 -176.56)" fill="url(#linear-gradient-2)"/>
        <path id="Path_1766" data-name="Path 1766" d="M386.084,187.846a2.921,2.921,0,1,0-3.24,4.822,7.139,7.139,0,0,1,2.44,2.095,1,1,0,0,0,.8.4h0a1,1,0,0,0,.8-.4,7.134,7.134,0,0,1,2.44-2.095,2.921,2.921,0,0,0-.994-5.482h0A2.915,2.915,0,0,0,386.084,187.846Zm3.209,2.086a1.34,1.34,0,0,1-.707,1.338,7.9,7.9,0,0,0-1.784,1.252,8.438,8.438,0,0,0-.718.718,8.453,8.453,0,0,0-.718-.718,7.905,7.905,0,0,0-1.784-1.252,1.339,1.339,0,1,1,1.75-1.91.9.9,0,0,0,1.5,0,1.34,1.34,0,0,1,1.3-.6h0A1.339,1.339,0,0,1,389.293,189.932Z" transform="translate(-363.427 -176.56)" fill="url(#linear-gradient-2)"/>
      </g>
    </g>
  </g>
</svg>
