<svg xmlns="http://www.w3.org/2000/svg" xmlns:xlink="http://www.w3.org/1999/xlink" width="44.228" height="43" viewBox="0 0 44.228 43">
  <defs>
    <linearGradient id="linear-gradient" x1="1" x2="0" y2="1" gradientUnits="objectBoundingBox">
      <stop offset="0" stop-color="#fe2b87"/>
      <stop offset="1" stop-color="#552f9c"/>
    </linearGradient>
    <filter id="chat_1_" x="0" y="0" width="44.228" height="43" filterUnits="userSpaceOnUse">
      <feOffset dy="3" input="SourceAlpha"/>
      <feGaussianBlur stdDeviation="3" result="blur"/>
      <feFlood flood-opacity="0.161"/>
      <feComposite operator="in" in2="blur"/>
      <feComposite in="SourceGraphic"/>
    </filter>
  </defs>
  <g transform="matrix(1, 0, 0, 1, 0, 0)" filter="url(#chat_1_)">
    <path id="chat_1_2" data-name="chat (1)" d="M6.867,25a1.642,1.642,0,0,1-1.641-1.641V21.617A1.128,1.128,0,0,0,4.1,20.49a4.1,4.1,0,0,1-4.1-4.1V4.1A4.1,4.1,0,0,1,4.1,0H22.13a4.1,4.1,0,0,1,4.1,4.1V11.27a1.025,1.025,0,0,1-2.049,0V4.1A2.051,2.051,0,0,0,22.13,2.049H4.1A2.051,2.051,0,0,0,2.049,4.1V16.392A2.051,2.051,0,0,0,4.1,18.441a3.18,3.18,0,0,1,3.176,3.176v.754L9.505,20.14a5.762,5.762,0,0,1,4.1-1.7H22.13a2.051,2.051,0,0,0,2.049-2.049,1.025,1.025,0,0,1,2.049,0,4.1,4.1,0,0,1-4.1,4.1H13.607a3.727,3.727,0,0,0-2.653,1.1l-2.93,2.93A1.635,1.635,0,0,1,6.867,25ZM21.105,6.147a1.024,1.024,0,0,0-1.025-1.025H6.147a1.025,1.025,0,0,0,0,2.049H20.081A1.024,1.024,0,0,0,21.105,6.147Zm0,4.1a1.024,1.024,0,0,0-1.025-1.025H6.147a1.025,1.025,0,0,0,0,2.049H20.081A1.024,1.024,0,0,0,21.105,10.245Zm-4.1,4.1a1.024,1.024,0,0,0-1.025-1.025H6.147a1.025,1.025,0,1,0,0,2.049h9.835A1.024,1.024,0,0,0,17.007,14.343Zm0,0" transform="translate(9 6)" fill="url(#linear-gradient)"/>
  </g>
</svg>
