<svg xmlns="http://www.w3.org/2000/svg" xmlns:xlink="http://www.w3.org/1999/xlink" width="23.813" height="27.723" viewBox="0 0 23.813 27.723">
  <defs>
    <linearGradient id="linear-gradient" x1="0.5" x2="0.5" y2="0.5" gradientUnits="objectBoundingBox">
      <stop offset="0" stop-color="#00f2fe"/>
      <stop offset="0" stop-color="#a380e4"/>
      <stop offset="1" stop-color="#925afb"/>
    </linearGradient>
    <linearGradient id="linear-gradient-2" x1="0.5" x2="0.5" y2="1" gradientUnits="objectBoundingBox">
      <stop offset="0" stop-color="#a380e4"/>
      <stop offset="1" stop-color="#925afb"/>
    </linearGradient>
    <filter id="question_2_" x="0" y="0" width="23.813" height="27.723" filterUnits="userSpaceOnUse">
      <feOffset dy="3" input="SourceAlpha"/>
      <feGaussianBlur stdDeviation="3" result="blur"/>
      <feFlood flood-opacity="0.161"/>
      <feComposite operator="in" in2="blur"/>
      <feComposite in="SourceGraphic"/>
    </filter>
  </defs>
  <g id="Group_1008" data-name="Group 1008" transform="translate(-257.343 -35.379)">
    <path id="chat" d="M.922,23.6a.922.922,0,0,1-.855-1.267l2.093-5.178A10.2,10.2,0,0,1,0,10.878a10.4,10.4,0,0,1,3.486-7.72A12.254,12.254,0,0,1,11.8,0a12.254,12.254,0,0,1,8.315,3.158,10.4,10.4,0,0,1,3.486,7.72,10.236,10.236,0,0,1-1.872,5.882A.922.922,0,1,1,20.217,15.7a8.4,8.4,0,0,0,1.539-4.827c0-4.982-4.466-9.034-9.956-9.034S1.844,5.9,1.844,10.878A8.427,8.427,0,0,0,3.921,16.4a.922.922,0,0,1,.153.944L2.628,20.919l4.21-1.856a.922.922,0,0,1,.734,0,10.876,10.876,0,0,0,9.082-.291.922.922,0,0,1,.835,1.644,12.729,12.729,0,0,1-10.264.5l-5.93,2.614A.921.921,0,0,1,.922,23.6Z" transform="translate(257.399 35.4)" fill="url(#linear-gradient)"/>
    <g transform="matrix(1, 0, 0, 1, 257.34, 35.38)" filter="url(#question_2_)">
      <path id="question_2_2" data-name="question (2)" d="M173.906,129.722a.692.692,0,1,1,.692-.692A.692.692,0,0,1,173.906,129.722Zm.692-3.114v-.929a2.885,2.885,0,1,0-2.722-4.865,2.834,2.834,0,0,0-.877,2.057.692.692,0,1,0,1.384,0,1.461,1.461,0,0,1,.453-1.061,1.531,1.531,0,0,1,1.13-.426,1.494,1.494,0,0,1,.274,2.957,1.294,1.294,0,0,0-1.026,1.27v1a.692.692,0,0,0,1.384,0Z" transform="translate(-162 -114)" fill="url(#linear-gradient-2)"/>
    </g>
  </g>
</svg>
