<?xml version="1.0" encoding="utf-8"?>
<!-- Generator: Adobe Illustrator 19.1.0, SVG Export Plug-In . SVG Version: 6.00 Build 0)  -->
<svg version="1.1" id="Layer_1" xmlns="http://www.w3.org/2000/svg" xmlns:xlink="http://www.w3.org/1999/xlink" x="0px" y="0px"
	 viewBox="-7 7 31 31" style="enable-background:new -7 7 31 31;" xml:space="preserve">
<style type="text/css">
	.st0{fill:url(#Path_1770_1_);}
	.st1{fill:url(#Path_1764_1_);}
	.st2{fill:url(#Path_1765_1_);}
	.st3{fill:url(#Path_1766_1_);}
</style>
<g id="Group_1503" transform="translate(-252.465 -981.465)">
	<g id="help" transform="translate(252.465 981.465)">
		<g id="Group_1504" transform="translate(0 0)">
			<g id="Group_1503-2">
				
					<linearGradient id="Path_1770_1_" gradientUnits="userSpaceOnUse" x1="-13.6954" y1="45.4508" x2="-13.6954" y2="44.2265" gradientTransform="matrix(-24.4582 6.5576 6.5566 24.4545 -620.4568 -984.1967)">
					<stop  offset="0" style="stop-color:#FFB4CC"/>
					<stop  offset="1" style="stop-color:#FFFFFF"/>
				</linearGradient>
				<path id="Path_1770" class="st0" d="M0.8,35.9c7.4,4.3,16.9,1.7,21.2-5.7s1.7-16.9-5.7-21.2c-6.2-3.6-14-2.5-18.9,2.7
					C-3.1,12.3-3,13-2.5,13.5c0.5,0.4,1.1,0.4,1.6,0c5-5.3,13.4-5.5,18.6-0.5s5.5,13.4,0.5,18.6S4.8,37.1-0.5,32.1
					c-3.7-3.5-5.1-8.9-3.4-13.8c0.2-0.6-0.1-1.3-0.8-1.5c-0.6-0.2-1.3,0.1-1.5,0.8C-8.6,24.5-5.7,32.2,0.8,35.9z"/>
			</g>
		</g>
	</g>
	<g id="Group_1505" transform="translate(259.445 990.797)">
		<g id="Group_1492" transform="translate(0 0)">
			
				<linearGradient id="Path_1764_1_" gradientUnits="userSpaceOnUse" x1="-19.9235" y1="34.572" x2="-19.9235" y2="33.3477" gradientTransform="matrix(12.5992 0 0 -6.7507 252.6035 248.7294)">
				<stop  offset="0" style="stop-color:#FFFFFF"/>
				<stop  offset="1" style="stop-color:#FF9BC3"/>
			</linearGradient>
			<path id="Path_1764" class="st1" d="M-6.1,16.7c0.5,4.3,4.3,7.3,8.6,6.9c3.6-0.4,6.5-3.2,6.9-6.9c0.1-0.7-0.4-1.3-1.1-1.4
				c-0.1,0-0.1,0-0.2,0c-2.3,0.2-4.4,0.2-6.4,0.2s-4.1-0.1-6.4-0.2c-0.7-0.1-1.3,0.5-1.3,1.1C-6.1,16.6-6.1,16.6-6.1,16.7z
				 M1.6,17.3c1.8,0,3.8-0.1,5.9-0.2c-0.7,3.3-3.9,5.4-7.2,4.7c-2.4-0.5-4.2-2.3-4.7-4.7C-2.2,17.2-0.3,17.3,1.6,17.3z"/>
			
				<linearGradient id="Path_1765_1_" gradientUnits="userSpaceOnUse" x1="-19.7647" y1="34.8706" x2="-19.7647" y2="33.6463" gradientTransform="matrix(8.4367 0 0 -7.0435 163.0028 251.2273)">
				<stop  offset="0" style="stop-color:#FFFFFF"/>
				<stop  offset="1" style="stop-color:#FF9BC3"/>
			</linearGradient>
			<path id="Path_1765" class="st2" d="M-3.7,6.4c-1.3-1.1-3.3-0.9-4.4,0.4s-0.9,3.3,0.4,4.4c0.2,0.1,0.4,0.3,0.6,0.4
				c1,0.5,1.9,1.3,2.6,2.3c0.2,0.3,0.5,0.4,0.9,0.4l0,0c0.3,0,0.7-0.2,0.9-0.4c0.7-0.9,1.6-1.7,2.6-2.3c1.5-0.8,2.1-2.7,1.3-4.3
				C0.6,6.4-0.3,5.8-1.3,5.6l0,0C-2.2,5.5-3.1,5.8-3.7,6.4z M-0.3,8.6C-0.2,9.2-0.5,9.8-1,10c-0.7,0.4-1.3,0.8-1.9,1.3
				c-0.3,0.2-0.5,0.5-0.8,0.8c-0.2-0.3-0.5-0.5-0.8-0.8c-0.6-0.5-1.2-1-1.9-1.3c-0.7-0.4-1-1.2-0.6-1.9c0.4-0.7,1.2-1,1.9-0.6
				C-4.9,7.6-4.7,7.8-4.6,8c0.3,0.4,0.9,0.6,1.3,0.3C-3.1,8.2-3,8.1-2.9,8c0.3-0.5,0.8-0.7,1.4-0.7l0,0C-0.9,7.4-0.4,7.9-0.3,8.6
				L-0.3,8.6z"/>
			
				<linearGradient id="Path_1766_1_" gradientUnits="userSpaceOnUse" x1="-19.5325" y1="34.8706" x2="-19.5325" y2="33.6463" gradientTransform="matrix(8.4367 0 0 -7.0435 171.7379 251.2273)">
				<stop  offset="0" style="stop-color:#FFFFFF"/>
				<stop  offset="1" style="stop-color:#FF9BC3"/>
			</linearGradient>
			<path id="Path_1766" class="st3" d="M7,6.4C5.6,5.2,3.6,5.4,2.5,6.7s-0.9,3.3,0.4,4.4c0.2,0.1,0.4,0.3,0.6,0.4
				c1,0.5,1.9,1.3,2.6,2.3c0.2,0.3,0.5,0.4,0.9,0.4l0,0c0.3,0,0.7-0.2,0.9-0.4c0.7-0.9,1.6-1.7,2.6-2.3c1.5-0.8,2.1-2.7,1.3-4.3
				c-0.5-0.9-1.4-1.5-2.4-1.7l0,0C8.5,5.5,7.6,5.8,7,6.4z M10.4,8.6c0.1,0.6-0.2,1.2-0.8,1.4c-0.7,0.4-1.3,0.8-1.9,1.3
				c-0.3,0.2-0.5,0.5-0.8,0.8c-0.2-0.3-0.5-0.5-0.8-0.8c-0.6-0.5-1.2-1-1.9-1.3c-0.7-0.4-1-1.2-0.6-1.9c0.4-0.7,1.2-1,1.9-0.6
				C5.8,7.6,6,7.8,6.1,8C6.4,8.4,7,8.6,7.5,8.3C7.6,8.2,7.7,8.1,7.8,8c0.3-0.5,0.8-0.7,1.4-0.7l0,0C9.8,7.4,10.3,7.9,10.4,8.6
				L10.4,8.6z"/>
		</g>
	</g>
</g>
</svg>
