<svg id="Group_898" data-name="Group 898" xmlns="http://www.w3.org/2000/svg" width="41.955" height="12.22" viewBox="0 0 41.955 12.22">
  <defs>
    <style>
      .cls-1 {
        fill: #fafafa;
      }
    </style>
  </defs>
  <path id="Path_501" data-name="Path 501" class="cls-1" d="M225.385,304.906c0-.606-.011-1.116-.044-1.57h1.148l.055.781h.032a1.824,1.824,0,0,1,1.624-.9,1.52,1.52,0,0,1,1.462.975h.022a1.99,1.99,0,0,1,.649-.66,1.764,1.764,0,0,1,1.061-.315c.877,0,1.765.6,1.765,2.286v3.107h-1.3V305.7c0-.876-.3-1.4-.942-1.4a1.016,1.016,0,0,0-.931.7,1.894,1.894,0,0,0-.065.443v3.163h-1.3v-3.055c0-.735-.292-1.255-.91-1.255a1.043,1.043,0,0,0-.953.758,1.148,1.148,0,0,0-.076.433v3.119h-1.3Z" transform="translate(-225.341 -296.508)"/>
  <path id="Path_502" data-name="Path 502" class="cls-1" d="M308.306,307.342a8.535,8.535,0,0,0,.075,1.267h-1.2l-.086-.584h-.033a1.958,1.958,0,0,1-1.558.7,1.565,1.565,0,0,1-1.657-1.57c0-1.333,1.179-2,3.13-1.993v-.086c0-.347-.141-.921-1.073-.921a2.8,2.8,0,0,0-1.418.39l-.26-.866a3.792,3.792,0,0,1,1.905-.466,1.973,1.973,0,0,1,2.177,2.22Zm-1.3-1.31c-.942-.022-1.841.184-1.841.985a.7.7,0,0,0,.758.758,1.08,1.08,0,0,0,1.039-.726.969.969,0,0,0,.043-.292Z" transform="translate(-295.425 -296.508)"/>
  <path id="Path_503" data-name="Path 503" class="cls-1" d="M353.672,304.906c0-.606-.011-1.116-.042-1.57H354.8l.065.792h.033a1.9,1.9,0,0,1,1.678-.911c.921,0,1.873.6,1.873,2.264v3.129h-1.332v-2.977c0-.759-.282-1.333-1.007-1.333a1.117,1.117,0,0,0-1.039.78,1.356,1.356,0,0,0-.054.432v3.1h-1.343Z" transform="translate(-339.872 -296.508)"/>
  <path id="Path_504" data-name="Path 504" class="cls-1" d="M409.133,284.578v5.908c0,.541.022,1.127.043,1.484h-1.19l-.054-.833h-.022a1.9,1.9,0,0,1-1.721.952,2.414,2.414,0,0,1-2.252-2.7,2.508,2.508,0,0,1,2.36-2.817,1.677,1.677,0,0,1,1.483.695h.022v-2.693Zm-1.331,4.316a1.845,1.845,0,0,0-.033-.347,1.167,1.167,0,0,0-1.147-.942c-.855,0-1.333.758-1.333,1.743,0,.963.477,1.667,1.322,1.667a1.175,1.175,0,0,0,1.147-.942,1.459,1.459,0,0,0,.044-.39Z" transform="translate(-384.783 -279.868)"/>
  <path id="Path_505" data-name="Path 505" class="cls-1" d="M461.177,309.6V304.33h1.343V309.6Z" transform="translate(-435.885 -297.502)"/>
  <path id="Path_506" data-name="Path 506" class="cls-1" d="M482.126,305.95c0-.715-.011-1.224-.043-1.7h1.159l.042,1.006h.044a1.451,1.451,0,0,1,1.441-1.006,1.5,1.5,0,0,1,.313,0v1.17a1.824,1.824,0,0,0-.389-.043,1.174,1.174,0,0,0-1.191,1.006,2.364,2.364,0,0,0-.043.413v2.728h-1.333Z" transform="translate(-454.549 -297.422)"/>
  <path id="Path_507" data-name="Path 507" class="cls-1" d="M515.81,309.6V304.33h1.342V309.6Z" transform="translate(-484.659 -297.502)"/>
  <path id="Path_508" data-name="Path 508" class="cls-1" d="M401.148,241.914c-.664-.758-1.371-.415-1.933-.136-.236.117-1.941,1.083-1.941,1.083a1.66,1.66,0,0,1-1.947-.389.855.855,0,0,1-.074-.107l-.066-.115a5.223,5.223,0,0,0-.375-.56,3.149,3.149,0,0,0-.269-.307c-.639-.646-1.661-1.1-3.369-.277-.808.469-3.442,1.974-3.442,1.974a1.639,1.639,0,0,1-1.992-.453.281.281,0,0,1-.029-.044l-.032-.055-.167-.273c-.072-.113-.151-.229-.242-.348a3.551,3.551,0,0,0-.27-.307c-.635-.642-1.651-1.092-3.344-.287l-3.4,1.946h0l-1.743,1,.9,1.107a1.835,1.835,0,0,0,2.2.455s3.045-1.763,3.057-1.768c2.6-1.429,3.888-.064,4.455.846.02.028.036.059.053.087h0c.007.011.012.021.017.032l.065.105a1.424,1.424,0,0,0,1.233.678,1.523,1.523,0,0,0,.765-.257l2.946-1.709.006,0c2.635-1.446,3.942.008,4.5.918a2.262,2.262,0,0,0,.143.224,1.352,1.352,0,0,0,1.141.608,1.726,1.726,0,0,0,.731-.233l3.532-2.038A14.848,14.848,0,0,0,401.148,241.914Z" transform="translate(-360.297 -240.664)"/>
</svg>
