<svg xmlns="http://www.w3.org/2000/svg" xmlns:xlink="http://www.w3.org/1999/xlink" width="20.313" height="25" viewBox="0 0 20.313 25">
  <defs>
    <linearGradient id="linear-gradient" x1="0.5" x2="0.5" y2="1" gradientUnits="objectBoundingBox">
      <stop offset="0" stop-color="#a380e4"/>
      <stop offset="1" stop-color="#925afb"/>
    </linearGradient>
  </defs>
  <path id="offer" d="M59.914,18.555a1.465,1.465,0,1,1,1.465,1.465A1.465,1.465,0,0,1,59.914,18.555Zm5.7-11.018c-.864-1.219-1.546-2.181-1.546-3.338a1.019,1.019,0,0,0-1.025-.977,1.115,1.115,0,0,0-.668.221,19.423,19.423,0,0,0-2.543,2.842c-.9-1.26-1.281-2.89-1.281-5.309A1.065,1.065,0,0,0,57.473,0a1.323,1.323,0,0,0-.616.151A22.762,22.762,0,0,0,51.87,4.794a19.127,19.127,0,0,0-2.683,4.418A14.287,14.287,0,0,0,48,14.829,10.175,10.175,0,0,0,58.156,25a9.931,9.931,0,0,0,6.757-2.546A.977.977,0,0,0,63.607,21a8.007,8.007,0,0,1-5.45,2.044,8.22,8.22,0,0,1-8.2-8.217A14.082,14.082,0,0,1,53.4,6.013a22.5,22.5,0,0,1,3.266-3.295A8.709,8.709,0,0,0,59.242,8.57.977.977,0,0,0,60.73,8.4a20.721,20.721,0,0,1,1.757-2.289,12.592,12.592,0,0,0,1.53,2.557,10.27,10.27,0,0,1,2.342,6.015s0,.009,0,.017a9.211,9.211,0,0,1-.354,2.419.977.977,0,1,0,1.879.533,11.546,11.546,0,0,0,.428-2.854A11.684,11.684,0,0,0,65.61,7.537ZM54.312,19.8a.977.977,0,0,0,1.375-.132l6.445-7.812a.977.977,0,0,0-1.507-1.243L54.18,18.421a.977.977,0,0,0,.132,1.375ZM56.4,11.719a1.465,1.465,0,1,0-1.465,1.465A1.465,1.465,0,0,0,56.4,11.719Z" transform="translate(-48)" fill="url(#linear-gradient)"/>
</svg>
