<svg xmlns="http://www.w3.org/2000/svg" width="19.591" height="24" viewBox="0 0 19.591 24">
  <defs>
    <style>
      .cls-1 {
        fill: #fff;
      }
    </style>
  </defs>
  <g id="order" transform="translate(-47.031)">
    <g id="Group_1381" data-name="Group 1381" transform="translate(49.436 3.607)">
      <g id="Group_1380" data-name="Group 1380" transform="translate(0)">
        <path id="Path_1266" data-name="Path 1266" class="cls-1" d="M101.119,78.163a.376.376,0,0,0-.376.376.827.827,0,1,1-.827-.827.376.376,0,1,0,0-.752,1.578,1.578,0,1,0,1.578,1.578A.376.376,0,0,0,101.119,78.163Z" transform="translate(-98.338 -76.96)"/>
      </g>
    </g>
    <g id="Group_1383" data-name="Group 1383" transform="translate(49.436 8.017)">
      <g id="Group_1382" data-name="Group 1382" transform="translate(0)">
        <path id="Path_1267" data-name="Path 1267" class="cls-1" d="M101.119,172.225a.376.376,0,0,0-.376.376.827.827,0,1,1-.827-.827.376.376,0,1,0,0-.752,1.578,1.578,0,1,0,1.578,1.578A.376.376,0,0,0,101.119,172.225Z" transform="translate(-98.338 -171.022)"/>
      </g>
    </g>
    <g id="Group_1385" data-name="Group 1385" transform="translate(53.444 10.021)">
      <g id="Group_1384" data-name="Group 1384" transform="translate(0)">
        <path id="Path_1268" data-name="Path 1268" class="cls-1" d="M187.031,213.779h-2.806a.376.376,0,1,0,0,.752h2.806a.376.376,0,1,0,0-.752Z" transform="translate(-183.849 -213.779)"/>
      </g>
    </g>
    <g id="Group_1387" data-name="Group 1387" transform="translate(53.444 8.417)">
      <g id="Group_1386" data-name="Group 1386" transform="translate(0)">
        <path id="Path_1269" data-name="Path 1269" class="cls-1" d="M187.031,179.574h-2.806a.376.376,0,0,0,0,.752h2.806a.376.376,0,1,0,0-.752Z" transform="translate(-183.849 -179.574)"/>
      </g>
    </g>
    <g id="Group_1389" data-name="Group 1389" transform="translate(53.444 14.43)">
      <g id="Group_1388" data-name="Group 1388" transform="translate(0)">
        <path id="Path_1270" data-name="Path 1270" class="cls-1" d="M186.229,307.841h-2a.376.376,0,1,0,0,.752h2a.376.376,0,1,0,0-.752Z" transform="translate(-183.849 -307.841)"/>
      </g>
    </g>
    <g id="Group_1391" data-name="Group 1391" transform="translate(53.444 12.827)">
      <g id="Group_1390" data-name="Group 1390" transform="translate(0)">
        <path id="Path_1271" data-name="Path 1271" class="cls-1" d="M187.031,273.637h-2.806a.376.376,0,1,0,0,.752h2.806a.376.376,0,1,0,0-.752Z" transform="translate(-183.849 -273.637)"/>
      </g>
    </g>
    <g id="Group_1393" data-name="Group 1393" transform="translate(53.444 5.612)">
      <g id="Group_1392" data-name="Group 1392" transform="translate(0)">
        <path id="Path_1272" data-name="Path 1272" class="cls-1" d="M190.638,119.716h-6.413a.376.376,0,1,0,0,.752h6.413a.376.376,0,0,0,0-.752Z" transform="translate(-183.849 -119.716)"/>
      </g>
    </g>
    <g id="Group_1395" data-name="Group 1395" transform="translate(53.444 4.008)">
      <g id="Group_1394" data-name="Group 1394" transform="translate(0)">
        <path id="Path_1273" data-name="Path 1273" class="cls-1" d="M189.035,85.511h-4.81a.376.376,0,1,0,0,.752h4.81a.376.376,0,0,0,0-.752Z" transform="translate(-183.849 -85.511)"/>
      </g>
    </g>
    <g id="Group_1397" data-name="Group 1397" transform="translate(49.436 12.426)">
      <g id="Group_1396" data-name="Group 1396" transform="translate(0)">
        <path id="Path_1274" data-name="Path 1274" class="cls-1" d="M101.119,266.288a.376.376,0,0,0-.376.376.827.827,0,1,1-.827-.827.376.376,0,1,0,0-.752,1.578,1.578,0,1,0,1.578,1.578A.376.376,0,0,0,101.119,266.288Z" transform="translate(-98.338 -265.085)"/>
      </g>
    </g>
    <g id="Group_1399" data-name="Group 1399" transform="translate(47.031)">
      <g id="Group_1398" data-name="Group 1398" transform="translate(0)">
        <path id="Path_1275" data-name="Path 1275" class="cls-1" d="M61.837,0H48.208a1.179,1.179,0,0,0-1.177,1.177V18.012a1.179,1.179,0,0,0,1.177,1.177h6.814a.376.376,0,0,0,0-.752H48.208a.426.426,0,0,1-.426-.426V1.177a.426.426,0,0,1,.426-.426H61.837a.426.426,0,0,1,.426.426V13.6a.376.376,0,1,0,.752,0V1.177A1.179,1.179,0,0,0,61.837,0Z" transform="translate(-47.031)"/>
      </g>
    </g>
    <g id="Group_1401" data-name="Group 1401" transform="translate(56.051 8.418)">
      <g id="Group_1400" data-name="Group 1400" transform="translate(0)">
        <path id="Path_1276" data-name="Path 1276" class="cls-1" d="M248.786,186.4a1.387,1.387,0,0,0-.975.274,1.369,1.369,0,0,0-1.03-.675,1.387,1.387,0,0,0-.975.274,1.369,1.369,0,0,0-1.03-.675,1.388,1.388,0,0,0-.767.144v-4.786a1.378,1.378,0,0,0-1.519-1.371,1.422,1.422,0,0,0-1.237,1.428v4.8l-1.1,1.1a2.365,2.365,0,0,0-.634,2.228l.839,3.564a3.169,3.169,0,0,0,3.1,2.453h3.389a3.185,3.185,0,0,0,3.182-3.182v-4.152A1.422,1.422,0,0,0,248.786,186.4Zm.485,5.58a2.433,2.433,0,0,1-2.43,2.43h-3.389a2.421,2.421,0,0,1-2.366-1.873l-.839-3.564a1.618,1.618,0,0,1,.434-1.524l.573-.573v1.3a.376.376,0,1,0,.752,0v-7.158a.664.664,0,0,1,.56-.68.626.626,0,0,1,.692.623v6.614a.376.376,0,0,0,.752,0v-.6a.627.627,0,0,1,.692-.623.664.664,0,0,1,.56.68v.945a.376.376,0,0,0,.752,0v-.6a.627.627,0,0,1,.692-.623.665.665,0,0,1,.56.68v.945a.376.376,0,0,0,.752,0v-.6a.626.626,0,0,1,.692-.623.664.664,0,0,1,.56.68v4.152Z" transform="translate(-239.452 -179.578)"/>
      </g>
    </g>
  </g>
</svg>
