<svg id="report" xmlns="http://www.w3.org/2000/svg" xmlns:xlink="http://www.w3.org/1999/xlink" width="11" height="11" viewBox="0 0 11 11">
  <defs>
    <style>
      .cls-1 {
        fill: url(#linear-gradient);
      }
    </style>
    <linearGradient id="linear-gradient" x1="0.5" x2="0.5" y2="1" gradientUnits="objectBoundingBox">
      <stop offset="0" stop-color="#fff"/>
      <stop offset="1" stop-color="#ffb4cc"/>
    </linearGradient>
  </defs>
  <path id="Path_1284" data-name="Path 1284" class="cls-1" d="M31.967,5.156a.963.963,0,0,0,.67-.271l.949.474a.967.967,0,1,0,1.831-.3l1.289-1.289a.967.967,0,0,0,1.339-1.161l1.12-.84a.966.966,0,1,0-.387-.515l-1.12.84a.966.966,0,0,0-1.408,1.221L34.962,4.606a.965.965,0,0,0-1.087.177l-.949-.474a.967.967,0,1,0-.959.848ZM39.7.645a.322.322,0,1,1-.322.322A.323.323,0,0,1,39.7.645ZM37.123,2.578A.322.322,0,1,1,36.8,2.9.323.323,0,0,1,37.123,2.578ZM34.545,5.156a.322.322,0,1,1-.322.322A.323.323,0,0,1,34.545,5.156ZM31.967,3.867a.322.322,0,1,1-.322.322A.323.323,0,0,1,31.967,3.867Zm0,0" transform="translate(-30.334)"/>
  <path id="Path_1285" data-name="Path 1285" class="cls-1" d="M10.678,157.133h-.344v-6.811a.322.322,0,0,0-.322-.322H8.723a.322.322,0,0,0-.322.322v6.811H7.756v-4.877a.322.322,0,0,0-.322-.322H6.145a.322.322,0,0,0-.322.322v4.877H5.178v-2.3a.322.322,0,0,0-.322-.322H3.566a.322.322,0,0,0-.322.322v2.3H2.6v-3.588a.322.322,0,0,0-.322-.322H.988a.322.322,0,0,0-.322.322v3.588H.322a.322.322,0,0,0,0,.645H10.678a.322.322,0,0,0,0-.645Zm-1.633-6.488h.645v6.488H9.045Zm-2.578,1.934h.645v4.555H6.467Zm-2.578,2.578h.645v1.977H3.889Zm-2.578-1.289h.645v3.266H1.311Zm0,0" transform="translate(0 -146.777)"/>
</svg>
