<svg xmlns="http://www.w3.org/2000/svg" xmlns:xlink="http://www.w3.org/1999/xlink" width="43" height="43" viewBox="0 0 43 43">
  <defs>
    <filter id="Path_475" x="12.89" y="16.394" width="30.11" height="26.606" filterUnits="userSpaceOnUse">
      <feOffset dy="3" input="SourceAlpha"/>
      <feGaussianBlur stdDeviation="3" result="blur"/>
      <feFlood flood-opacity="0.161"/>
      <feComposite operator="in" in2="blur"/>
      <feComposite in="SourceGraphic"/>
    </filter>
    <filter id="Path_476" x="0" y="0" width="43" height="34.699" filterUnits="userSpaceOnUse">
      <feOffset dy="3" input="SourceAlpha"/>
      <feGaussianBlur stdDeviation="3" result="blur-2"/>
      <feFlood flood-opacity="0.161"/>
      <feComposite operator="in" in2="blur-2"/>
      <feComposite in="SourceGraphic"/>
    </filter>
  </defs>
  <g id="share" transform="translate(9 6)">
    <g id="Group_842" data-name="Group 842" transform="translate(12.89 16.394)">
      <g id="Group_841" data-name="Group 841">
        <g transform="matrix(1, 0, 0, 1, -21.89, -22.39)" filter="url(#Path_475)">
          <path id="Path_475-2" data-name="Path 475" d="M271.907,335.96a4.192,4.192,0,0,0-3.231,1.52l-3.268-1.625a.977.977,0,1,0-.87,1.749l3.273,1.628a4.2,4.2,0,1,0,4.1-3.271Zm0,6.445a2.246,2.246,0,0,1-2.072-3.113.986.986,0,0,0,.118-.24,2.246,2.246,0,1,1,1.954,3.353Z" transform="translate(-242.11 -313.36)" fill="#2c1677"/>
        </g>
      </g>
    </g>
    <g id="Group_844" data-name="Group 844">
      <g id="Group_843" data-name="Group 843">
        <g transform="matrix(1, 0, 0, 1, -9, -6)" filter="url(#Path_476)">
          <path id="Path_476-2" data-name="Path 476" d="M20.8,0a4.2,4.2,0,0,0-4.093,5.141L7.414,9.8a4.2,4.2,0,1,0-.01,5.409l1.577.8a.977.977,0,0,0,.886-1.741l-1.581-.8a4.216,4.216,0,0,0,0-1.921l9.289-4.658A4.2,4.2,0,1,0,20.8,0ZM4.2,14.746A2.246,2.246,0,1,1,6.445,12.5,2.249,2.249,0,0,1,4.2,14.746Zm16.6-8.3A2.246,2.246,0,1,1,23.047,4.2,2.249,2.249,0,0,1,20.8,6.445Z" transform="translate(9 6)" fill="#2c1677"/>
        </g>
      </g>
    </g>
  </g>
</svg>
