<svg xmlns="http://www.w3.org/2000/svg" width="14.159" height="21.094" viewBox="0 0 14.159 21.094">
  <defs>
    <style>
      .cls-1 {
        fill: #fafafa;
      }
    </style>
  </defs>
  <path id="upload" class="cls-1" d="M12.432,1.476V13a1.955,1.955,0,0,1-1.953,1.953H6.391l4.374,4.4a.973.973,0,0,0,1.38,0l4.374-4.4h-.962a.977.977,0,0,1,0-1.953h1.074a1.909,1.909,0,0,1,1.348,3.256L13.53,20.73a2.926,2.926,0,0,1-4.15,0L4.932,16.256A1.909,1.909,0,0,1,6.28,13h4.2V1.476a.977.977,0,1,1,1.953,0Zm0,0" transform="translate(-4.376 -0.5)"/>
</svg>
