<svg xmlns="http://www.w3.org/2000/svg" width="39.799" height="12.5" viewBox="0 0 39.799 12.5">
  <defs>
    <style>
      .cls-1 {
        fill: #fafafa;
        fill-rule: evenodd;
      }
    </style>
  </defs>
  <g id="layer2" transform="translate(-4.445 -2.992)">
    <path id="path2453" class="cls-1" d="M169.443,18.548l1.533-3.005h4.147c3.581,0,3.209,3.727.691,4.869,2.411,1.219.833,5.349-2.675,5.319h-4.809l1.833-7.183Zm3.4,1.112.3-1.412h1.142c1.1.27.15,1.473-.421,1.412Zm-.9,3.456.451-1.623h1.142c1.352.27.511,1.683-.391,1.623Z" transform="translate(-149.764 -11.469)"/>
    <path id="path3262" class="cls-1" d="M280.571,18.824l1.574-2.78-2.13-1.111-.278.343c-1.149-.608-7.168.232-7.544,6.168.225,4.98,5.806,4.084,6.353,3.768l1.535-3.173c-1.5.99-4.581,1.465-4.711-1.509C275.64,18.079,278.535,17.163,280.571,18.824Z" transform="translate(-244.675 -10.912)"/>
    <path id="path3309" class="cls-1" d="M356.267,18.458h.79l-3.648,7.273h3.531l.725-1.754h2.167l.054,1.754h3.25l-.491-10.188h-4.84Zm3.62,3.157-.054-2.829-1.185,2.829Z" transform="translate(-318.893 -11.469)"/>
    <path id="path3324" class="cls-1" d="M15.57,4.439a11.07,11.07,0,0,1,.023,9.718,10.773,10.773,0,0,1-9.741-.069,10.768,10.768,0,0,1,0-9.718A10.947,10.947,0,0,1,15.57,4.439Zm.183-.228a11.512,11.512,0,0,1,.024,10.106,11.2,11.2,0,0,1-10.13-.071,11.2,11.2,0,0,1,0-10.106A11.385,11.385,0,0,1,15.754,4.211Z" transform="translate(0 0)"/>
    <path id="path3357" class="cls-1" d="M29.8,85.778h.22a1.7,1.7,0,0,0-.8-1.545c-.587-.421-2.279-.511-2.55-1.061a1.321,1.321,0,0,0,.508,1.973C28.157,85.5,29.371,84.453,29.8,85.778Z" transform="translate(-20.09 -73.271)"/>
    <path id="path3359" class="cls-1" d="M84.224,85.778h.2c.614-1.431,1.754.052,2.943-.8a1.29,1.29,0,0,0,.185-1.806C87.29,83.973,84.391,83.472,84.224,85.778Z" transform="translate(-72.904 -73.271)"/>
    <path id="path3365" class="cls-1" d="M54.975,24.8h.254a10.578,10.578,0,0,1,.291-3.753c.575-1.127,1.036-.964,1.5-2.1a1.916,1.916,0,0,0-1.789-2.508,1.939,1.939,0,0,0-2.038,2.537c.2.74,1.105,1.153,1.463,2.069A11.234,11.234,0,0,1,54.975,24.8Z" transform="translate(-44.466 -12.293)"/>
    <path id="path3371" class="cls-1" d="M31.684,57.686a2.383,2.383,0,0,0-.443-1.306C30,54.828,27.476,56,28.126,53.36c.338-1.348,4.191-2.142,3.748,4.324Z" transform="translate(-21.544 -45.179)"/>
    <path id="path3231" class="cls-1" d="M79.636,57.689h.226a2.063,2.063,0,0,1,.764-1.683c1.318-.957,3.375-.317,2.736-2.652-.466-1.164-2.569-1.621-3.487.966A10.932,10.932,0,0,0,79.636,57.689Z" transform="translate(-68.705 -45.172)"/>
    <path id="path3233" class="cls-1" d="M37.1,120.533l.3.1-.147.508-.124-.034.011-.079c-.152.069-.43.017-.463-.158a1.29,1.29,0,0,1,.226-.768c.155-.194.533,0,.542.113a.713.713,0,0,1-.037.248l-.142-.027s.009-.042.021-.109-.171-.141-.226-.068a1.231,1.231,0,0,0-.169.5c-.016.2.178.159.226.135s.068-.181.068-.181l-.135-.045Z" transform="translate(-29.45 -106.943)"/>
    <path id="path3234" class="cls-1" d="M47.411,123.535l.219-.985c.535.058.582.207.592.367-.021.124-.054.211-.161.232.125.113,0,.351,0,.528l-.187-.045c.022-.154.2-.468-.157-.468l-.1.41Zm.348-.541.058-.232c.214,0,.21.088.206.174C47.961,123.073,47.852,123,47.759,122.994Z" transform="translate(-39.264 -109.255)"/>
    <path id="path3243" class="cls-1" d="M59.592,124.4l.194.03-.085.691c.011.229.24.215.285.049l.091-.722.164.012-.073.795a.342.342,0,0,1-.661-.03Z" transform="translate(-50.317 -110.942)"/>
    <path id="path3235" class="cls-1" d="M71.189,126.418l.055-1.037c.379.008.6.06.588.327-.022.365-.318.283-.455.279l-.036.437Zm.243-.849-.036.255c.094-.009.209.072.255-.109C71.647,125.574,71.54,125.566,71.432,125.569Z" transform="translate(-60.993 -111.842)"/>
    <path id="path3240" class="cls-1" d="M86.625,125.806l-.164-1c.085-.014.5-.166.6.109a.348.348,0,0,0,.115.522c.008.151-.043.251-.139.285Zm.042-.891.049.261c.119-.026.18-.1.17-.188C86.87,124.917,86.812,124.866,86.667,124.914Zm.091.455.042.267c.1,0,.19-.057.164-.182S86.839,125.353,86.758,125.369Z" transform="translate(-74.949 -111.266)"/>
    <path id="path3253" class="cls-1" d="M97.572,123.206l.176-.03c-.037-.128-.013-.31-.418-.249-.247.057-.175.367-.133.661.072.343.123.395.388.376.123-.024.288-.059.243-.406l-.176.024c.019.093.04.164-.061.237-.087.011-.125.032-.182-.079l-.091-.479a.163.163,0,0,1,.1-.2C97.5,123.052,97.544,123.1,97.572,123.206Z" transform="translate(-84.72 -109.588)"/>
    <path id="path3255" class="cls-1" d="M107.77,121.764l-.055-1.043.206-.055.509.861-.14.091-.17-.243-.194.073.018.255Zm.109-.794.018.34.188-.055Z" transform="translate(-94.371 -107.533)"/>
  </g>
</svg>
