<svg xmlns="http://www.w3.org/2000/svg" width="43.143" height="12.6" viewBox="0 0 43.143 12.6">
  <defs>
    <style>
      .cls-1 {
        fill: #fafafa;
      }
    </style>
  </defs>
  <g id="XMLID_1_" transform="translate(-67.5 -196.7)">
    <path id="XMLID_2_" class="cls-1" d="M67.5,233.8l3.641,4.586L67.5,241.4Z" transform="translate(0 -32.715)"/>
    <path id="XMLID_3_" class="cls-1" d="M79.9,280.993l2.742-2.293,1.891,2.293Z" transform="translate(-10.934 -72.308)"/>
    <path id="XMLID_4_" class="cls-1" d="M67.5,198.8l.946,1.206,3.9,4.882,1.265-1a16.113,16.113,0,0,1-1.761-2.612c-1.383-2.695-.4-4.373-.4-4.373H67.5Z" transform="translate(0 -0.176)"/>
    <path id="XMLID_5_" class="cls-1" d="M113.3,262.864l1.288-1.064a6.119,6.119,0,0,0,2.659,2,2.412,2.412,0,0,0,2.695-.721v3.014h-4.113l.922-.8s-.485.319-1.667-.5A12.017,12.017,0,0,1,113.3,262.864Z" transform="translate(-40.386 -57.405)"/>
    <path id="XMLID_6_" class="cls-1" d="M112.624,196.7a2.5,2.5,0,0,0-.118,1.927,8.273,8.273,0,0,0,1.548,2.979,4.268,4.268,0,0,1,.981-2.447,3.578,3.578,0,0,1,4.113-.78V196.7Z" transform="translate(-39.593)"/>
    <path id="XMLID_7_" class="cls-1" d="M136.873,220.34a4.447,4.447,0,0,0-2.281-1.04,2.091,2.091,0,0,0-2.092,2.021,3.276,3.276,0,0,0,1.194,2.518c.851.851,1.891,1.773,3.18,1.04Z" transform="translate(-57.317 -19.929)"/>
    <path id="XMLID_8_" class="cls-1" d="M286.8,197.7h2.872s2.541,3.853,3.794,5.449,2.6,3.4,2.6,3.4v-7.99c0-.343-.91-.863-.91-.863h3.31s-1.087.449-1.087.863v11.619a9.286,9.286,0,0,1-2.222-1.95c-1.324-1.548-6.052-7.778-6.052-7.778v8.073c0,.414.91,1.04.91,1.04H286.8s.875-.626.875-1.04v-9.964C287.686,198.2,286.8,197.7,286.8,197.7Z" transform="translate(-193.379 -0.882)"/>
    <path id="XMLID_9_" class="cls-1" d="M401.3,197.7h3.688s-.993.473-.993.863v9.964c0,.426.993,1.04.993,1.04H401.3s.922-.626.922-1.04v-9.964C402.222,198.185,401.3,197.7,401.3,197.7Z" transform="translate(-294.345 -0.882)"/>
    <path id="XMLID_10_" class="cls-1" d="M195,197.7s.957.473.957.863v9.964c0,.426-.957,1.04-.957,1.04h5.461c.343,0,4.161-.626,4.161-3.57a3.25,3.25,0,0,0-2.967-3.227,2.6,2.6,0,0,0,1.808-2.518c0-2.175-2.659-2.553-3-2.553Zm2.908,4.882V198.87h2.222a1.762,1.762,0,0,1,1.537,1.879,1.947,1.947,0,0,1-1.537,1.832Zm0,.969h2.565c.343,0,2.352.52,2.352,2.269,0,1.785-2.009,2.411-2.352,2.411h-2.565Z" transform="translate(-112.43 -0.882)"/>
  </g>
</svg>
