<svg xmlns="http://www.w3.org/2000/svg" width="51.866" height="12.22" viewBox="0 0 51.866 12.22">
  <defs>
    <style>
      .cls-1 {
        fill: #fafafa;
      }
    </style>
  </defs>
  <g id="XMLID_1_" transform="translate(-67.5 -187.7)">
    <path id="XMLID_2_" class="cls-1" d="M168.046,214.073h-.384v-1.407h.7c.483,0,.966.156.966.654v.213C169.3,213.96,168.529,214.073,168.046,214.073Zm-.426-3.78h.426c.483,0,1.08.057,1.08.54v.213c0,.384-.6.54-1.023.54h-.483ZM166,215.21h2.316c1.293,0,2.586-.327,2.586-1.563v-.384a1.231,1.231,0,0,0-1.194-1.137v-.057a1.27,1.27,0,0,0,1.023-1.137v-.426c0-.924-.924-1.407-1.833-1.407H166v6.11Z" transform="translate(-84.503 -18.359)"/>
    <path id="XMLID_6_" class="cls-1" d="M291.1,215.21h1.62v-2.757c.327.213,1.776,2.757,2,2.757h2c-.114-.384-2.373-3.14-2.373-3.24s2-2.487,2.217-2.87h-1.947l-1.833,2.43V209.1h-1.62v6.11Z" transform="translate(-191.827 -18.359)"/>
    <rect id="XMLID_7_" class="cls-1" width="1.62" height="6.11" transform="translate(117.746 190.741)"/>
    <path id="XMLID_8_" class="cls-1" d="M202.7,210.407h0l.753,2.373h-1.506Zm-3.3,4.8h1.563c.156,0,.54-1.08.54-1.293h2.217c.27,0,.384,1.293.654,1.293h1.677l-2.316-6.11h-1.947c-.156,0-.54,1.236-.654,1.464-.213.483-.384,1.023-.6,1.563-.213.483-.384.966-.6,1.506C199.84,214.13,199.514,214.784,199.4,215.21Z" transform="translate(-113.157 -18.359)"/>
    <path id="XMLID_11_" class="cls-1" d="M247.7,215.21h1.52V211.1l2.046,4.107h2V209.1h-1.464v4.05l-2-4.05h-2.1Z" transform="translate(-154.594 -18.359)"/>
    <path id="XMLID_12_" class="cls-1" d="M383.52,209.779h.54c.426,0,1.08.156,1.08.54v.213c0,.54-.654.654-1.236.654h-.384ZM381.9,214.7h1.62v-2.43h.384a1.023,1.023,0,0,1,.966.924,13.575,13.575,0,0,1,.483,1.464h1.677c0-.213-.483-1.407-.54-1.677-.114-.27-.213-.54-.327-.81-.156-.426-.384-.384-.54-.6a1.389,1.389,0,0,0,1.137-1.236v-.426c0-1.023-1.023-1.407-2.1-1.407H381.9Z" transform="translate(-269.724 -17.844)"/>
    <path id="XMLID_15_" class="cls-1" d="M345.577,212.61h.384c.6,0,1.293.114,1.293.654,0,.7-.6.81-1.293.81h-.384Zm0-2.316h.6c.54,0,.966.114.966.654,0,.426-.54.654-1.023.654h-.54Zm-1.62,4.917h2.487c1.293,0,2.43-.426,2.43-1.677v-.057a1.328,1.328,0,0,0-1.137-1.407v-.057a1.3,1.3,0,0,0,.966-1.293c0-1.08-.753-1.62-1.833-1.62H343.9v6.11Z" transform="translate(-237.124 -18.359)"/>
    <path id="XMLID_19_" class="cls-1" d="M68.736,189.718c0-.426.54-.81,1.023-.81h1.08a1.569,1.569,0,0,1,1.506,1.464v.156c0,1.236-2,2.373-2.586,3.3a15.818,15.818,0,0,0,1.35,1.464c.384.384,1.137,1.023,1.137,1.677v.327a1.668,1.668,0,0,1-1.293,1.407H69.66a.967.967,0,0,1-.867-.81v-8.156h-.057Zm5.087.753a5.956,5.956,0,0,0-.156-.924,4.621,4.621,0,0,1-.384-.7h1.08a1.514,1.514,0,0,1,1.464,1.236v.384c0,.867-2.87,2.913-2.87,3.3,0,0,2.16,2.217,2.373,2.43l1.194,1.194a12.844,12.844,0,0,1,1.137,1.236H73.283a2.223,2.223,0,0,0,.54-1.407v-.213a2.915,2.915,0,0,0-.966-1.833c-.27-.27-1.137-1.293-1.35-1.464.639-.966,2.316-1.663,2.316-3.24Zm3.3-.27c0-.654-.384-.924-.654-1.293,1.08,0,1.677-.114,1.947.753a14.462,14.462,0,0,1,.057,2.643v5.4l-3.837-3.893c.6-.867,2.43-1.833,2.43-3.14v-.483h.057Zm-9.62-.213v7.83a2.227,2.227,0,0,0,2.16,2.1h8.057a2.274,2.274,0,0,0,2-2.16V189.7a2.183,2.183,0,0,0-2.16-2h-7.9A2.224,2.224,0,0,0,67.5,189.988Z" transform="translate(0)"/>
  </g>
</svg>
