<svg xmlns="http://www.w3.org/2000/svg" width="8.203" height="15" viewBox="0 0 8.203 15">
  <defs>
    <style>
      .cls-1 {
        fill: #fafafa;
      }
    </style>
  </defs>
  <path id="info" class="cls-1" d="M4.043,3.516A1.758,1.758,0,1,1,5.8,1.758,1.76,1.76,0,0,1,4.043,3.516Zm0-2.344a.586.586,0,1,0,.586.586A.587.587,0,0,0,4.043,1.172ZM8.2,13.242a1.76,1.76,0,0,0-1.758-1.758H5.273a.586.586,0,0,0,0,1.172H6.445a.586.586,0,0,1,0,1.172H1.758a.586.586,0,0,1,0-1.172H2.93a.586.586,0,0,0,.586-.586V7.559a.586.586,0,0,0-.586-.586H1.758a.586.586,0,0,1,0-1.172H4.1a.587.587,0,0,1,.586.586V9.111a.586.586,0,0,0,1.172,0V6.387A1.76,1.76,0,0,0,4.1,4.629H1.758a1.758,1.758,0,0,0,0,3.516h.586v3.34H1.758a1.758,1.758,0,0,0,0,3.516H6.445A1.76,1.76,0,0,0,8.2,13.242Zm0,0"/>
</svg>
