<svg xmlns="http://www.w3.org/2000/svg" width="15" height="15" viewBox="0 0 15 15">
  <defs>
    <style>
      .cls-1 {
        fill: #2c1677;
      }
    </style>
  </defs>
  <path id="chat" class="cls-1" d="M.586,15a.586.586,0,0,1-.543-.806L1.373,10.9A6.48,6.48,0,0,1,0,6.914,6.609,6.609,0,0,1,2.216,2.007,7.788,7.788,0,0,1,7.5,0a7.789,7.789,0,0,1,5.285,2.007A6.609,6.609,0,0,1,15,6.914a6.506,6.506,0,0,1-1.19,3.739.586.586,0,0,1-.961-.671,5.34,5.34,0,0,0,.978-3.068c0-3.166-2.839-5.742-6.328-5.742S1.172,3.748,1.172,6.914a5.356,5.356,0,0,0,1.32,3.509.586.586,0,0,1,.1.6L1.67,13.3l2.676-1.18a.586.586,0,0,1,.466,0,6.913,6.913,0,0,0,5.772-.185.586.586,0,0,1,.531,1.045,8.09,8.09,0,0,1-6.524.315L.823,14.95A.585.585,0,0,1,.586,15Z" transform="translate(0)"/>
</svg>
