<svg id="calendar" xmlns="http://www.w3.org/2000/svg" width="12" height="12" viewBox="0 0 12 12">
  <defs>
    <style>
      .cls-1 {
        fill: #fff;
      }
    </style>
  </defs>
  <g id="Group_1123" data-name="Group 1123">
    <path id="Path_549" data-name="Path 549" class="cls-1" d="M11.531,8.25A.469.469,0,0,0,12,7.781V2.813A1.877,1.877,0,0,0,10.125.937H9.516V.469a.469.469,0,0,0-.937,0V.937H6.445V.469a.469.469,0,1,0-.937,0V.937H3.4V.469a.469.469,0,1,0-.937,0V.937H1.875A1.877,1.877,0,0,0,0,2.813v7.313A1.877,1.877,0,0,0,1.875,12h8.25A1.877,1.877,0,0,0,12,10.125a.469.469,0,0,0-.937,0,.939.939,0,0,1-.937.938H8.344V8.25Zm-.469-.937H8.344V4.5h2.719Zm-7.406,3.75H1.875a.939.939,0,0,1-.937-.937V8.25H3.656Zm0-3.75H.937V4.5H3.656Zm3.75,3.75H4.594V8.25H7.406Zm0-3.75H4.594V4.5H7.406ZM.937,3.562v-.75a.939.939,0,0,1,.937-.938h.586v.469a.469.469,0,1,0,.937,0V1.875H5.508v.469a.469.469,0,1,0,.937,0V1.875H8.578v.469a.469.469,0,1,0,.938,0V1.875h.609a.939.939,0,0,1,.938.938v.75Z"/>
  </g>
</svg>
