<svg xmlns="http://www.w3.org/2000/svg" xmlns:xlink="http://www.w3.org/1999/xlink" width="22" height="23" viewBox="0 0 22 23">
  <defs>
    <style>
      .cls-1, .cls-2 {
        fill: #fff;
      }

      .cls-1 {
        clip-rule: evenodd;
      }

      .cls-3 {
        clip-path: url(#clip-path);
      }

      .cls-4 {
        clip-path: url(#clip-path-2);
      }
    </style>
    <clipPath id="clip-path">
      <path id="Path_1254" data-name="Path 1254" class="cls-1" d="M18.213-10.137c-2.715,0-4.675-1.731-4.675-3.809,0-2.038,2.432-3.735,5.146-3.705a5.916,5.916,0,0,1,1.758.284c1.472,1.033,2.53,1.616,2.828,2.793a3.185,3.185,0,0,1,.087.734c0,2.08-1.33,3.7-5.145,3.7m.713-12.192c-1.821-.055-3.553-2.053-3.867-4.463s.907-4.254,2.729-4.2,3.553,1.988,3.867,4.4-.907,4.319-2.729,4.264M22.7-18.761c-.639-.456-1.859-1.563-1.859-2.215,0-.765.216-1.14,1.356-2.038a4.794,4.794,0,0,0,2-3.719c0-1.793-.792-3.539-2.279-4.115h2.241L25.74-32H18.669c-3.168,0-6.151,2.419-6.151,5.221A5.128,5.128,0,0,0,17.9-21.6c.225,0,.442,0,.655-.02a2.934,2.934,0,0,0-.36,1.329,2.772,2.772,0,0,0,.964,1.969c-.407,0-.8.012-1.225.012-3.926,0-6.949,2.518-6.949,5.132C10.988-10.609,14.3-9,18.226-9c4.475,0,6.949-2.559,6.949-5.132A4.977,4.977,0,0,0,22.7-18.761M32.988-22.12H30.236v-2.772H28.021v2.772H25.269v2.233h2.752v2.772h2.216v-2.772h2.752V-22.12" transform="translate(-10.988 32)"/>
    </clipPath>
    <clipPath id="clip-path-2">
      <path id="Path_1253" data-name="Path 1253" class="cls-2" d="M-180,360H404V-104H-180Z" transform="translate(180 104)"/>
    </clipPath>
  </defs>
  <g id="Group_1355" data-name="Group 1355" class="cls-3">
    <g id="Group_1354" data-name="Group 1354" class="cls-4" transform="translate(-190.988 -72)">
      <path id="Path_1252" data-name="Path 1252" class="cls-2" d="M5.988-37h32V-4h-32Z" transform="translate(180 104)"/>
    </g>
  </g>
</svg>
