<svg xmlns="http://www.w3.org/2000/svg" width="7.6" height="12" viewBox="0 0 7.6 12">
  <defs>
    <style>
      .cls-1 {
        fill: #fff;
      }
    </style>
  </defs>
  <g id="hourglass" transform="translate(-93.867)">
    <g id="Group_1407" data-name="Group 1407" transform="translate(93.867)">
      <g id="Group_1406" data-name="Group 1406">
        <path id="Path_1288" data-name="Path 1288" class="cls-1" d="M100.867,0h-6.4a.6.6,0,1,0,0,1.2h6.4a.6.6,0,1,0,0-1.2Zm0,.8h-6.4a.2.2,0,1,1,0-.4h6.4a.2.2,0,1,1,0,.4Z" transform="translate(-93.867)"/>
      </g>
    </g>
    <g id="Group_1409" data-name="Group 1409" transform="translate(93.867 10.8)">
      <g id="Group_1408" data-name="Group 1408">
        <path id="Path_1289" data-name="Path 1289" class="cls-1" d="M100.867,460.8h-6.4a.6.6,0,1,0,0,1.2h6.4a.6.6,0,1,0,0-1.2Zm0,.8h-6.4a.2.2,0,1,1,0-.4h6.4a.2.2,0,1,1,0,.4Z" transform="translate(-93.867 -460.8)"/>
      </g>
    </g>
    <g id="Group_1411" data-name="Group 1411" transform="translate(94.667 0.8)">
      <g id="Group_1410" data-name="Group 1410">
        <path id="Path_1290" data-name="Path 1290" class="cls-1" d="M132.425,38.592A5.341,5.341,0,0,0,134,34.79v-.456a.2.2,0,0,0-.2-.2h-5.6a.2.2,0,0,0-.2.2v.456a5.342,5.342,0,0,0,1.575,3.8l.2.2a.766.766,0,0,1,0,1.083l-.2.2a5.341,5.341,0,0,0-1.575,3.8v.456a.2.2,0,0,0,.2.2h5.6a.2.2,0,0,0,.2-.2v-.456a5.341,5.341,0,0,0-1.575-3.8l-.2-.2a.766.766,0,0,1,0-1.083Zm-.484-.082a1.166,1.166,0,0,0,0,1.648l.2.2a4.944,4.944,0,0,1,1.458,3.519v.256h-5.2v-.256a4.944,4.944,0,0,1,1.457-3.519l.2-.2a1.165,1.165,0,0,0,0-1.648l-.2-.2A4.944,4.944,0,0,1,128.4,34.79v-.256h5.2v.256a4.944,4.944,0,0,1-1.458,3.519Z" transform="translate(-128 -34.134)"/>
      </g>
    </g>
    <g id="Group_1413" data-name="Group 1413" transform="translate(96.067 2.68)">
      <g id="Group_1412" data-name="Group 1412">
        <path id="Path_1291" data-name="Path 1291" class="cls-1" d="M191.031,115.051a.284.284,0,0,0-.29-.169,2.9,2.9,0,0,1-1.686-.355.855.855,0,0,0-.787-.116.788.788,0,0,0-.506.543.652.652,0,0,0-.021.11.211.211,0,0,0,.025.117,4.446,4.446,0,0,0,.715.994l.2.2a1.554,1.554,0,0,1,.459,1.107.2.2,0,0,0,.4,0,1.555,1.555,0,0,1,.458-1.107l.2-.2c.049-.049.114-.11.185-.176C190.9,115.511,191.12,115.275,191.031,115.051Zm-.92.655c-.074.07-.142.133-.193.185l-.2.2a1.965,1.965,0,0,0-.376.524,1.964,1.964,0,0,0-.376-.524l-.2-.2a3.836,3.836,0,0,1-.612-.843.391.391,0,0,1,.25-.261.455.455,0,0,1,.419.063,3.058,3.058,0,0,0,1.72.429C190.417,115.418,190.223,115.6,190.111,115.706Z" transform="translate(-187.741 -114.362)"/>
      </g>
    </g>
    <g id="Group_1415" data-name="Group 1415" transform="translate(95.48 8.4)">
      <g id="Group_1414" data-name="Group 1414">
        <path id="Path_1292" data-name="Path 1292" class="cls-1" d="M167.069,360.184a1.733,1.733,0,0,0-.611-1.23l-.126-.132a1.338,1.338,0,0,0-.974-.422h-.95a1.339,1.339,0,0,0-.974.422l-.126.132a1.732,1.732,0,0,0-.611,1.23.2.2,0,0,0,.2.215h3.974a.2.2,0,0,0,.2-.216ZM163.123,360a1.39,1.39,0,0,1,.472-.768l.13-.137a.936.936,0,0,1,.682-.3h.95a.938.938,0,0,1,.682.3c.045.048.089.093.131.137a1.392,1.392,0,0,1,.472.767Z" transform="translate(-162.696 -358.4)"/>
      </g>
    </g>
    <g id="Group_1417" data-name="Group 1417" transform="translate(97.461 6.4)">
      <g id="Group_1416" data-name="Group 1416">
        <path id="Path_1293" data-name="Path 1293" class="cls-1" d="M247.411,273.067a.2.2,0,0,0-.2.2v.2a.2.2,0,0,0,.4,0v-.2A.2.2,0,0,0,247.411,273.067Z" transform="translate(-247.211 -273.067)"/>
      </g>
    </g>
    <g id="Group_1419" data-name="Group 1419" transform="translate(97.461 7.4)">
      <g id="Group_1418" data-name="Group 1418">
        <path id="Path_1294" data-name="Path 1294" class="cls-1" d="M247.411,315.733a.2.2,0,0,0-.2.2v.2a.2.2,0,0,0,.4,0v-.2A.2.2,0,0,0,247.411,315.733Z" transform="translate(-247.211 -315.733)"/>
      </g>
    </g>
  </g>
</svg>
