<svg xmlns="http://www.w3.org/2000/svg" xmlns:xlink="http://www.w3.org/1999/xlink" width="20" height="20" viewBox="0 0 20 20">
  <defs>
    <style>
      .cls-1, .cls-2 {
        fill: #fff;
      }

      .cls-1 {
        clip-rule: evenodd;
      }

      .cls-3 {
        clip-path: url(#clip-path);
      }

      .cls-4 {
        clip-path: url(#clip-path-2);
      }
    </style>
    <clipPath id="clip-path">
      <path id="Path_1247" data-name="Path 1247" class="cls-1" d="M28.135-32H15.865A3.87,3.87,0,0,0,12-28.135v12.27A3.87,3.87,0,0,0,15.865-12h12.27A3.87,3.87,0,0,0,32-15.865v-12.27A3.87,3.87,0,0,0,28.135-32Zm1.109,2.306.442,0v3.39l-3.38.011-.012-3.39,2.949-.008Zm-10.1,5.641A3.516,3.516,0,0,1,22-25.521a3.516,3.516,0,0,1,2.854,1.468A3.5,3.5,0,0,1,25.521-22,3.524,3.524,0,0,1,22-18.48,3.524,3.524,0,0,1,18.48-22a3.5,3.5,0,0,1,.666-2.053Zm10.905,8.188a1.919,1.919,0,0,1-1.917,1.917H15.865a1.919,1.919,0,0,1-1.917-1.917v-8.188h2.987a5.429,5.429,0,0,0-.4,2.053A5.475,5.475,0,0,0,22-16.531,5.475,5.475,0,0,0,27.469-22a5.475,5.475,0,0,0-.4-2.053h2.986v8.188Z" transform="translate(-12 32)"/>
    </clipPath>
    <clipPath id="clip-path-2">
      <path id="Path_1246" data-name="Path 1246" class="cls-2" d="M-240,360H344V-104H-240Z" transform="translate(240 104)"/>
    </clipPath>
  </defs>
  <g id="Group_1346" data-name="Group 1346" class="cls-3">
    <g id="Group_1345" data-name="Group 1345" class="cls-4" transform="translate(-252 -72)">
      <path id="Path_1245" data-name="Path 1245" class="cls-2" d="M7-37H37V-7H7Z" transform="translate(240 104)"/>
    </g>
  </g>
</svg>
