<svg id="clock" xmlns="http://www.w3.org/2000/svg" width="12" height="12" viewBox="0 0 12 12">
  <defs>
    <style>
      .cls-1 {
        fill: #fff;
      }
    </style>
  </defs>
  <path id="Path_1286" data-name="Path 1286" class="cls-1" d="M10.737,3.157a.5.5,0,0,0-.232.668A4.949,4.949,0,0,1,11,6,5,5,0,1,1,6,1,4.94,4.94,0,0,1,9.1,2.079.5.5,0,1,0,9.726,1.3,6,6,0,1,0,12,6a5.939,5.939,0,0,0-.595-2.61A.5.5,0,0,0,10.737,3.157Zm0,0"/>
  <path id="Path_1287" data-name="Path 1287" class="cls-1" d="M176.5,64a.5.5,0,0,0-.5.5V68a.5.5,0,0,0,.5.5H179a.5.5,0,0,0,0-1h-2v-3A.5.5,0,0,0,176.5,64Zm0,0" transform="translate(-170.5 -62)"/>
</svg>
