<svg id="rupiah" xmlns="http://www.w3.org/2000/svg" width="12" height="12" viewBox="0 0 12 12">
  <defs>
    <style>
      .cls-1 {
        fill: #fff;
      }
    </style>
  </defs>
  <path id="Path_1302" data-name="Path 1302" class="cls-1" d="M6,0a6,6,0,1,0,6,6A6.007,6.007,0,0,0,6,0ZM6,11.182A5.182,5.182,0,1,1,11.182,6,5.188,5.188,0,0,1,6,11.182Zm0,0"/>
  <path id="Path_1303" data-name="Path 1303" class="cls-1" d="M151,130.443a1.227,1.227,0,0,0-.17-2.443h-1.091a.409.409,0,0,0-.409.409v3a.409.409,0,0,0,.818,0v-.569l1.262.9a.409.409,0,0,0,.57-.095.409.409,0,0,0-.1-.57Zm-.851-.807v-.818h.682a.409.409,0,1,1,0,.818Zm0,0" transform="translate(-145.514 -124.727)"/>
  <path id="Path_1304" data-name="Path 1304" class="cls-1" d="M257.5,192h-1.091a.409.409,0,0,0-.409.409v3a.409.409,0,1,0,.818,0v-.955h.682a1.227,1.227,0,1,0,0-2.455Zm0,1.636h-.682v-.818h.682a.409.409,0,0,1,0,.818Zm0,0" transform="translate(-249.455 -187.091)"/>
</svg>
