<svg xmlns="http://www.w3.org/2000/svg" width="13.933" height="22" viewBox="0 0 13.933 22">
  <defs>
    <style>
      .cls-1 {
        fill: #071143;
      }
    </style>
  </defs>
  <g id="hourglass" transform="translate(-93.867)">
    <g id="Group_1407" data-name="Group 1407" transform="translate(93.867)">
      <g id="Group_1406" data-name="Group 1406">
        <path id="Path_1288" data-name="Path 1288" class="cls-1" d="M106.7,0H94.967a1.1,1.1,0,1,0,0,2.2H106.7a1.1,1.1,0,1,0,0-2.2Zm0,1.467H94.967a.367.367,0,1,1,0-.733H106.7a.367.367,0,1,1,0,.733Z" transform="translate(-93.867 0)"/>
      </g>
    </g>
    <g id="Group_1409" data-name="Group 1409" transform="translate(93.867 19.8)">
      <g id="Group_1408" data-name="Group 1408">
        <path id="Path_1289" data-name="Path 1289" class="cls-1" d="M106.7,460.8H94.967a1.1,1.1,0,1,0,0,2.2H106.7a1.1,1.1,0,1,0,0-2.2Zm0,1.467H94.967a.367.367,0,1,1,0-.733H106.7a.367.367,0,1,1,0,.733Z" transform="translate(-93.867 -460.8)"/>
      </g>
    </g>
    <g id="Group_1411" data-name="Group 1411" transform="translate(95.334 1.467)">
      <g id="Group_1410" data-name="Group 1410">
        <path id="Path_1290" data-name="Path 1290" class="cls-1" d="M136.113,42.306A9.793,9.793,0,0,0,139,35.336V34.5a.367.367,0,0,0-.367-.367H128.367A.367.367,0,0,0,128,34.5v.836a9.793,9.793,0,0,0,2.887,6.97l.368.368a1.4,1.4,0,0,1,0,1.985l-.368.369A9.792,9.792,0,0,0,128,52v.836a.367.367,0,0,0,.367.367h10.267a.367.367,0,0,0,.367-.367V52a9.793,9.793,0,0,0-2.887-6.97l-.369-.369a1.4,1.4,0,0,1,0-1.985Zm-.887-.15a2.137,2.137,0,0,0,0,3.022l.368.369A9.064,9.064,0,0,1,138.267,52v.469h-9.533V52a9.065,9.065,0,0,1,2.672-6.452l.368-.369a2.137,2.137,0,0,0,0-3.022l-.368-.368a9.064,9.064,0,0,1-2.672-6.452v-.469h9.533v.469a9.064,9.064,0,0,1-2.672,6.452Z" transform="translate(-128 -34.134)"/>
      </g>
    </g>
    <g id="Group_1413" data-name="Group 1413" transform="translate(97.901 4.914)">
      <g id="Group_1412" data-name="Group 1412">
        <path id="Path_1291" data-name="Path 1291" class="cls-1" d="M193.773,115.626a.522.522,0,0,0-.532-.311,5.319,5.319,0,0,1-3.091-.652,1.567,1.567,0,0,0-1.442-.212,1.445,1.445,0,0,0-.927,1,1.2,1.2,0,0,0-.039.2.387.387,0,0,0,.046.214,8.15,8.15,0,0,0,1.31,1.822l.368.369a2.849,2.849,0,0,1,.841,2.03.367.367,0,0,0,.733,0,2.851,2.851,0,0,1,.84-2.03l.369-.369c.091-.09.209-.2.338-.323C193.536,116.469,193.935,116.035,193.773,115.626Zm-1.687,1.2c-.136.128-.26.245-.354.339l-.369.369a3.6,3.6,0,0,0-.689.96,3.6,3.6,0,0,0-.689-.96l-.368-.368a7.032,7.032,0,0,1-1.123-1.545.717.717,0,0,1,.458-.478.834.834,0,0,1,.767.115,5.606,5.606,0,0,0,3.153.786C192.646,116.3,192.29,116.633,192.085,116.826Z" transform="translate(-187.741 -114.362)"/>
      </g>
    </g>
    <g id="Group_1415" data-name="Group 1415" transform="translate(96.824 15.4)">
      <g id="Group_1414" data-name="Group 1414">
        <path id="Path_1292" data-name="Path 1292" class="cls-1" d="M170.713,361.671a3.178,3.178,0,0,0-1.12-2.254c-.074-.077-.152-.158-.232-.243a2.453,2.453,0,0,0-1.785-.774h-1.742a2.454,2.454,0,0,0-1.785.774c-.08.085-.157.165-.231.242a3.176,3.176,0,0,0-1.12,2.255.366.366,0,0,0,.366.395h7.285a.367.367,0,0,0,.366-.4Zm-7.233-.338a2.549,2.549,0,0,1,.865-1.407c.077-.08.157-.163.239-.251a1.716,1.716,0,0,1,1.25-.542h1.742a1.719,1.719,0,0,1,1.25.542c.083.089.162.171.24.252a2.552,2.552,0,0,1,.865,1.407Z" transform="translate(-162.696 -358.4)"/>
      </g>
    </g>
    <g id="Group_1417" data-name="Group 1417" transform="translate(100.456 11.733)">
      <g id="Group_1416" data-name="Group 1416">
        <path id="Path_1293" data-name="Path 1293" class="cls-1" d="M247.578,273.067a.367.367,0,0,0-.367.367v.367a.367.367,0,0,0,.733,0v-.367A.367.367,0,0,0,247.578,273.067Z" transform="translate(-247.211 -273.067)"/>
      </g>
    </g>
    <g id="Group_1419" data-name="Group 1419" transform="translate(100.456 13.567)">
      <g id="Group_1418" data-name="Group 1418">
        <path id="Path_1294" data-name="Path 1294" class="cls-1" d="M247.578,315.733a.367.367,0,0,0-.367.367v.367a.367.367,0,0,0,.733,0V316.1A.367.367,0,0,0,247.578,315.733Z" transform="translate(-247.211 -315.733)"/>
      </g>
    </g>
  </g>
</svg>
