<svg xmlns="http://www.w3.org/2000/svg" width="28" height="28" viewBox="0 0 28 28">
  <defs>
    <style>
      .cls-1 {
        fill: #071143;
      }
    </style>
  </defs>
  <g id="sticker" transform="translate(-1 -1)">
    <path id="Path_1297" data-name="Path 1297" class="cls-1" d="M29,10.484a.45.45,0,0,0-.132-.319L19.835,1.132A.45.45,0,0,0,19.516,1a9.488,9.488,0,0,0-9.462,9.054,9.478,9.478,0,1,0,9.892,9.892A9.488,9.488,0,0,0,29,10.484Zm-2.718.166a6.771,6.771,0,1,1-6.932-6.932,9.5,9.5,0,0,0,6.932,6.932ZM20.059,2.633l7.308,7.308a8.585,8.585,0,0,1-7.308-7.308ZM17.249,19.682a6.771,6.771,0,1,1-6.932-6.932,9.5,9.5,0,0,0,6.932,6.932ZM10.484,28.1a8.575,8.575,0,0,1-.428-17.14q.022.456.087.9a7.673,7.673,0,1,0,8,8q.444.065.9.087A8.584,8.584,0,0,1,10.484,28.1Zm9.032-9.032a8.576,8.576,0,0,1-.428-17.142q.022.457.087.9a7.672,7.672,0,1,0,8,8c.3.043.6.072.9.087a8.586,8.586,0,0,1-8.562,8.153Z" transform="translate(0 0)"/>
    <path id="Path_1298" data-name="Path 1298" class="cls-1" d="M34.9,24H34v.452a3.613,3.613,0,1,0,7.226,0V24h-.9v.452a2.71,2.71,0,1,1-5.419,0Z" transform="translate(-18.097 -12.613)"/>
    <path id="Path_1299" data-name="Path 1299" class="cls-1" d="M32.355,16.71A1.355,1.355,0,1,0,31,15.355,1.356,1.356,0,0,0,32.355,16.71Zm0-1.806a.452.452,0,1,1-.452.452A.452.452,0,0,1,32.355,14.9Z" transform="translate(-16.452 -7.129)"/>
    <path id="Path_1300" data-name="Path 1300" class="cls-1" d="M14,46.613v.452h.9v-.452a2.71,2.71,0,1,1,5.419,0v.452h.9v-.452a3.613,3.613,0,1,0-7.226,0Z" transform="translate(-7.129 -23.032)"/>
    <path id="Path_1301" data-name="Path 1301" class="cls-1" d="M12.355,36.71A1.355,1.355,0,1,0,11,35.355,1.356,1.356,0,0,0,12.355,36.71Zm0-1.806a.452.452,0,1,1-.452.452A.452.452,0,0,1,12.355,34.9Z" transform="translate(-5.484 -18.097)"/>
  </g>
</svg>
