<svg id="rupiah" xmlns="http://www.w3.org/2000/svg" width="24" height="24" viewBox="0 0 24 24">
  <defs>
    <style>
      .cls-1 {
        fill: #071143;
      }
    </style>
  </defs>
  <path id="Path_1302" data-name="Path 1302" class="cls-1" d="M12,0A12,12,0,1,0,24,12,12.014,12.014,0,0,0,12,0Zm0,22.364A10.364,10.364,0,1,1,22.364,12,10.376,10.376,0,0,1,12,22.364Zm0,0"/>
  <path id="Path_1303" data-name="Path 1303" class="cls-1" d="M152.671,132.886a2.455,2.455,0,0,0-.339-4.886H150.15a.818.818,0,0,0-.818.818v6a.818.818,0,0,0,1.636,0V133.68l2.524,1.8a.817.817,0,0,0,1.141-.19.818.818,0,0,0-.191-1.141Zm-1.7-1.613v-1.636h1.364a.818.818,0,1,1,0,1.636Zm0,0" transform="translate(-141.696 -121.455)"/>
  <path id="Path_1304" data-name="Path 1304" class="cls-1" d="M259,192h-2.182a.818.818,0,0,0-.818.818v6a.818.818,0,0,0,1.636,0v-1.909H259A2.455,2.455,0,1,0,259,192Zm0,3.273h-1.364v-1.636H259a.818.818,0,0,1,0,1.636Zm0,0" transform="translate(-242.909 -182.182)"/>
</svg>
