<svg xmlns="http://www.w3.org/2000/svg" width="17.999" height="12" viewBox="0 0 17.999 12">
  <defs>
    <style>
      .cls-1 {
        fill: #fff;
      }
    </style>
  </defs>
  <g id="_025---Live-Recording" data-name="025---Live-Recording" transform="translate(0 -0.998)">
    <path id="Shape" class="cls-1" d="M8.823,18H.947A.947.947,0,0,0,0,18.947v4.737a.947.947,0,0,0,.947.947H11.684a.947.947,0,0,0,.947-.947V21.808A3.809,3.809,0,0,0,8.823,18ZM2.842,23.684H1.263a.316.316,0,0,1-.316-.316V19.263a.316.316,0,0,1,.632,0v3.789H2.842a.316.316,0,1,1,0,.632Zm1.579-.316a.316.316,0,0,1-.632,0V19.263a.316.316,0,0,1,.632,0Zm3.466-4.034-.947,4.105a.316.316,0,0,1-.308.245H6.315a.316.316,0,0,1-.308-.245L5.06,19.334a.316.316,0,1,1,.616-.142l.8,3.456.8-3.456a.316.316,0,0,1,.616.142Zm2.534,1.824a.316.316,0,1,1,0,.632H9.157v1.263H10.42a.316.316,0,1,1,0,.632H8.842a.316.316,0,0,1-.316-.316V19.263a.316.316,0,0,1,.316-.316H10.42a.316.316,0,1,1,0,.632H9.157v1.579Z" transform="translate(0 -11.633)"/>
    <path id="Shape-2" data-name="Shape" class="cls-1" d="M25.888,3.821a4.419,4.419,0,1,1,6.324,6.143.632.632,0,1,0,.839.942,5.68,5.68,0,1,0-8.128-7.9.632.632,0,1,0,.965.813Z" transform="translate(-16.94)"/>
    <path id="Shape-3" data-name="Shape" class="cls-1" d="M33.366,10.618A1.895,1.895,0,0,1,36,13.278a.617.617,0,0,0-.028.677.632.632,0,0,0,1.049.067A3.156,3.156,0,0,0,32.633,9.59a.628.628,0,0,0,.1,1.065A.612.612,0,0,0,33.366,10.618Z" transform="translate(-22.158 -5.473)"/>
    <circle id="Oval" class="cls-1" cx="0.632" cy="0.632" r="0.632" transform="translate(11.684 6.051)"/>
  </g>
</svg>
