<svg xmlns="http://www.w3.org/2000/svg" width="12" height="12" viewBox="0 0 12 12">
  <defs>
    <style>
      .cls-1 {
        fill: #fff;
      }
    </style>
  </defs>
  <g id="sticker" transform="translate(-1 -1)">
    <path id="Path_1297" data-name="Path 1297" class="cls-1" d="M13,5.065a.193.193,0,0,0-.057-.137L9.072,1.057A.193.193,0,0,0,8.935,1,4.066,4.066,0,0,0,4.88,4.88,4.062,4.062,0,1,0,9.12,9.12,4.066,4.066,0,0,0,13,5.065Zm-1.165.071A2.9,2.9,0,1,1,8.864,2.165a4.072,4.072,0,0,0,2.971,2.971ZM9.168,1.7,12.3,4.832A3.679,3.679,0,0,1,9.168,1.7Zm-1.2,7.307A2.9,2.9,0,1,1,4.993,6.036,4.072,4.072,0,0,0,7.964,9.007Zm-2.9,3.606a3.675,3.675,0,0,1-.183-7.346q.01.2.037.385A3.288,3.288,0,1,0,8.347,9.082q.19.028.385.037A3.679,3.679,0,0,1,5.065,12.613ZM8.935,8.742A3.675,3.675,0,0,1,8.752,1.4q.01.2.037.386a3.288,3.288,0,1,0,3.429,3.429c.127.019.256.031.386.037A3.68,3.68,0,0,1,8.935,8.742Z"/>
    <path id="Path_1298" data-name="Path 1298" class="cls-1" d="M34.387,24H34v.194a1.548,1.548,0,1,0,3.1,0V24H36.71v.194a1.161,1.161,0,1,1-2.323,0Z" transform="translate(-26.613 -18.548)"/>
    <path id="Path_1299" data-name="Path 1299" class="cls-1" d="M31.581,15.161A.581.581,0,1,0,31,14.581.581.581,0,0,0,31.581,15.161Zm0-.774a.194.194,0,1,1-.194.194A.194.194,0,0,1,31.581,14.387Z" transform="translate(-24.194 -10.484)"/>
    <path id="Path_1300" data-name="Path 1300" class="cls-1" d="M14,44.548v.194h.387v-.194a1.161,1.161,0,1,1,2.323,0v.194H17.1v-.194a1.548,1.548,0,0,0-3.1,0Z" transform="translate(-10.484 -33.871)"/>
    <path id="Path_1301" data-name="Path 1301" class="cls-1" d="M11.581,35.161A.581.581,0,1,0,11,34.581.581.581,0,0,0,11.581,35.161Zm0-.774a.194.194,0,1,1-.194.194A.194.194,0,0,1,11.581,34.387Z" transform="translate(-8.065 -26.613)"/>
  </g>
</svg>
