<svg xmlns="http://www.w3.org/2000/svg" width="12" height="12" viewBox="0 0 12 12">
  <defs>
    <style>
      .cls-1 {
        fill: #e51f7c;
      }
    </style>
  </defs>
  <path id="user" class="cls-1" d="M11.97,10.283a.469.469,0,0,0-.918.191.49.49,0,0,1-.1.411.476.476,0,0,1-.375.178H1.423a.476.476,0,0,1-.375-.178.49.49,0,0,1-.1-.411,5.179,5.179,0,0,1,4.927-4.1l.124,0,.125,0A5.157,5.157,0,0,1,10.29,8.661a.469.469,0,1,0,.779-.522,6.1,6.1,0,0,0-3.159-2.4,3.187,3.187,0,1,0-3.816,0A6.1,6.1,0,0,0,.031,10.283,1.424,1.424,0,0,0,1.423,12h9.155a1.424,1.424,0,0,0,1.392-1.717Zm-8.22-7.1A2.25,2.25,0,1,1,6.114,5.435H5.887A2.253,2.253,0,0,1,3.75,3.188Z" transform="translate(0)"/>
</svg>
