<svg xmlns="http://www.w3.org/2000/svg" width="22" height="21.999" viewBox="0 0 22 21.999">
  <defs>
    <style>
      .cls-1 {
        fill: #fff;
      }
    </style>
  </defs>
  <path id="upload" class="cls-1" d="M18.563,22.5H3.438A3.441,3.441,0,0,1,0,19.061V16.14a.859.859,0,1,1,1.719,0v2.922A1.721,1.721,0,0,0,3.438,20.78H18.563a1.721,1.721,0,0,0,1.719-1.719V16.14a.859.859,0,0,1,1.719,0v2.922A3.441,3.441,0,0,1,18.563,22.5ZM11.9,18.2V8.061a1.721,1.721,0,0,0-1.719-1.719h-3.6l3.849-3.872a.856.856,0,0,1,1.214,0L15.5,6.343h-.847a.859.859,0,1,0,0,1.719H15.6A1.68,1.68,0,0,0,16.783,5.2L12.869,1.259a2.575,2.575,0,0,0-3.652,0L5.3,5.2A1.68,1.68,0,0,0,6.489,8.062h3.695V18.2a.859.859,0,1,0,1.719,0Zm0,0" transform="translate(0 -0.5)"/>
</svg>
