<svg xmlns="http://www.w3.org/2000/svg" width="23" height="15.902" viewBox="0 0 23 15.902">
  <defs>
    <style>
      .cls-1 {
        fill: #fafafa;
      }
    </style>
  </defs>
  <path id="Path_1745" data-name="Path 1745" class="cls-1" d="M12.758,94.9H3.594A3.6,3.6,0,0,1,0,91.309V82.594A3.6,3.6,0,0,1,3.594,79h9.164a3.6,3.6,0,0,1,3.594,3.594v.756L21.7,80.71a.9.9,0,0,1,1.3.806V86.1a.9.9,0,1,1-1.8,0V82.96l-5.263,2.6a.9.9,0,0,1-.4.093h-.09a.9.9,0,0,1-.9-.9V82.594a1.8,1.8,0,0,0-1.8-1.8H3.594a1.8,1.8,0,0,0-1.8,1.8v8.715a1.8,1.8,0,0,0,1.8,1.8h9.164a1.8,1.8,0,0,0,1.8-1.8V89.152a.9.9,0,0,1,.9-.9H15.5a.9.9,0,0,1,.4.094l5.3,2.635V90.59a.9.9,0,0,1,1.8,0v1.842a.9.9,0,0,1-1.3.8l-5.35-2.657v.729A3.6,3.6,0,0,1,12.758,94.9Z" transform="translate(0 -79)"/>
</svg>
