<svg xmlns="http://www.w3.org/2000/svg" xmlns:xlink="http://www.w3.org/1999/xlink" width="23.6" height="23.6" viewBox="0 0 23.6 23.6">
  <defs>
    <linearGradient id="linear-gradient" x1="0.572" y1="-0.093" x2="0.599" y2="0.4" gradientUnits="objectBoundingBox">
      <stop offset="0" stop-color="#a380e4"/>
      <stop offset="1" stop-color="#925afb"/>
    </linearGradient>
  </defs>
  <path id="search" d="M13.92,0A9.675,9.675,0,0,0,6.477,15.861L.272,22.024a.922.922,0,1,0,1.3,1.308l6.214-6.171a9.674,9.674,0,0,0,10.874.961.922.922,0,0,0-.9-1.607,7.832,7.832,0,1,1,2.977-2.959.922.922,0,1,0,1.6.914A9.682,9.682,0,0,0,13.92,0Z" transform="translate(0)" fill="url(#linear-gradient)"/>
</svg>
