<svg xmlns="http://www.w3.org/2000/svg" width="22" height="16.867" viewBox="0 0 22 16.867">
  <defs>
    <style>
      .cls-1 {
        fill: #fff;
      }
    </style>
  </defs>
  <g id="mail" transform="translate(0 -59.733)">
    <g id="Group_1374" data-name="Group 1374" transform="translate(0 59.733)">
      <g id="Group_1373" data-name="Group 1373" transform="translate(0 0)">
        <path id="Path_1261" data-name="Path 1261" class="cls-1" d="M20.9,59.733H1.1a1.1,1.1,0,0,0-1.1,1.1V75.5a1.1,1.1,0,0,0,1.1,1.1H20.9A1.1,1.1,0,0,0,22,75.5V60.833A1.1,1.1,0,0,0,20.9,59.733ZM21.267,75.5a.367.367,0,0,1-.367.367H1.1A.367.367,0,0,1,.733,75.5V60.833a.367.367,0,0,1,.367-.367H20.9a.367.367,0,0,1,.367.367Z" transform="translate(0 -59.733)"/>
        <path id="Path_1262" data-name="Path 1262" class="cls-1" d="M52.865,93.866a.366.366,0,0,0-.268.084l-8.459,7.106a.733.733,0,0,1-.944,0l-8.459-7.106a.367.367,0,0,0-.472.562l8.459,7.106a1.465,1.465,0,0,0,1.887,0l8.459-7.106a.367.367,0,0,0-.2-.646Z" transform="translate(-32.666 -92.398)"/>
        <path id="Path_1263" data-name="Path 1263" class="cls-1" d="M39.591,272.934a.367.367,0,0,0-.354.114l-5.133,5.5a.367.367,0,1,0,.536.5l5.133-5.5a.367.367,0,0,0-.182-.614Z" transform="translate(-32.539 -263.764)"/>
        <path id="Path_1264" data-name="Path 1264" class="cls-1" d="M341.841,273.048a.367.367,0,1,0-.536.5l5.133,5.5a.367.367,0,0,0,.536-.5Z" transform="translate(-326.54 -263.764)"/>
      </g>
    </g>
  </g>
</svg>
